<svg width="70" height="70" viewBox="0 0 70 70" fill="none" xmlns="http://www.w3.org/2000/svg">
<path d="M0 35C0 15.67 15.67 0 35 0V0C54.33 0 70 15.67 70 35V35C70 54.33 54.33 70 35 70V70C15.67 70 0 54.33 0 35V35Z" fill="#FBBFB6"/>
<path d="M36.4307 44.1475C35.8481 43.8411 35.1519 43.8411 34.5693 44.1475L29.8161 46.6465C28.3489 47.4179 26.6339 46.1719 26.9142 44.5381L27.8222 39.2448C27.9335 38.596 27.7184 37.934 27.247 37.4745L23.4022 33.7267C22.2151 32.5696 22.8703 30.5536 24.5108 30.3153L29.8238 29.5438C30.4753 29.4492 31.0385 29.04 31.3299 28.4497L33.7065 23.634C34.4401 22.1475 36.5599 22.1475 37.2935 23.634L39.6701 28.4497C39.9615 29.04 40.5247 29.4492 41.1762 29.5438L46.4892 30.3153C48.1297 30.5536 48.7849 32.5696 47.5978 33.7267L43.753 37.4745C43.2816 37.934 43.0665 38.596 43.1778 39.2448L44.0858 44.5381C44.3661 46.1719 42.6511 47.4179 41.1839 46.6465L36.4307 44.1475Z" stroke="#0E1B2C" stroke-width="2" stroke-linecap="round" stroke-linejoin="round"/>
</svg>
