<svg xmlns="http://www.w3.org/2000/svg" width="20" height="21" viewBox="0 0 20 21" fill="none">
<g clip-path="url(#clip0_60_522)">
<path fill-rule="evenodd" clip-rule="evenodd" d="M2.05764 6.77737C2.1157 6.71916 2.18467 6.67298 2.2606 6.64148C2.33653 6.60997 2.41793 6.59375 2.50014 6.59375C2.58235 6.59375 2.66375 6.60997 2.73968 6.64148C2.81561 6.67298 2.88458 6.71916 2.94264 6.77737L10.0001 13.8361L17.0576 6.77737C17.1158 6.71926 17.1847 6.67316 17.2607 6.64171C17.3366 6.61026 17.418 6.59408 17.5001 6.59408C17.5823 6.59408 17.6637 6.61026 17.7396 6.64171C17.8155 6.67316 17.8845 6.71926 17.9426 6.77737C18.0007 6.83548 18.0468 6.90446 18.0783 6.98039C18.1097 7.05631 18.1259 7.13769 18.1259 7.21987C18.1259 7.30205 18.1097 7.38342 18.0783 7.45935C18.0468 7.53527 18.0007 7.60426 17.9426 7.66237L10.4426 15.1624C10.3846 15.2206 10.3156 15.2667 10.2397 15.2983C10.1638 15.3298 10.0823 15.346 10.0001 15.346C9.91793 15.346 9.83653 15.3298 9.7606 15.2983C9.68467 15.2667 9.6157 15.2206 9.55764 15.1624L2.05764 7.66237C1.99944 7.60431 1.95326 7.53534 1.92175 7.45941C1.89024 7.38348 1.87402 7.30208 1.87402 7.21987C1.87402 7.13766 1.89024 7.05626 1.92175 6.98032C1.95326 6.90439 1.99944 6.83542 2.05764 6.77737Z" fill="#212529"/>
</g>
<defs>
<clipPath id="clip0_60_522">
<rect width="20" height="20" fill="white" transform="translate(0 0.970703)"/>
</clipPath>
</defs>
</svg>