<svg width="38" height="41" viewBox="0 0 38 41" fill="none" xmlns="http://www.w3.org/2000/svg">
<path d="M1 0V12.4138C1 15.4609 3.47015 17.931 6.51724 17.931C9.56433 17.931 12.0345 15.4609 12.0345 12.4138V4.13793C12.0345 2.61439 10.7994 1.37931 9.27586 1.37931C7.75232 1.37931 6.51724 2.61439 6.51724 4.13793V13.7931M16.1724 1.37931H34.1034C35.627 1.37931 36.8621 2.61439 36.8621 4.13793V37.2414C36.8621 38.7649 35.627 40 34.1034 40H6.51724C4.9937 40 3.75862 38.7649 3.75862 37.2414V22.069M29.9655 12.4138H18.931M29.9655 20.6897H18.931M29.9655 28.9655H10.6552" stroke="#6C48F0" stroke-width="2"/>
</svg>
