<svg xmlns="http://www.w3.org/2000/svg" width="15" height="20" viewBox="0 0 15 20" fill="none">
<path d="M1 1V0.25H0.25V1H1ZM13.8656 1H14.6156V0.25H13.8656V1ZM4.24379 6.48192C4.42919 6.11152 4.27921 5.66095 3.90881 5.47555C3.5384 5.29015 3.08783 5.44012 2.90243 5.81053L4.24379 6.48192ZM1.00063 11.2857L0.329951 10.95L0.110221 11.389L0.424616 11.766L1.00063 11.2857ZM7.43341 19L6.85739 19.4803C6.99989 19.6512 7.21091 19.75 7.43341 19.75C7.65591 19.75 7.86692 19.6512 8.00942 19.4803L7.43341 19ZM13.8662 11.2857L14.4422 11.766L14.7567 11.3889L14.5368 10.9499L13.8662 11.2857ZM11.9631 5.81039C11.7776 5.44003 11.327 5.29014 10.9566 5.47561C10.5862 5.66108 10.4364 6.11168 10.6218 6.48205L11.9631 5.81039ZM8.18278 12.5714L8.1827 11.8214L6.6827 11.8215L6.68278 12.5715L8.18278 12.5714ZM7.43278 6.67854C4.29306 6.67854 1.75 4.13647 1.75 1H0.25C0.25 4.96583 3.46557 8.17854 7.43278 8.17854V6.67854ZM1 1.75H13.8656V0.25H1V1.75ZM13.1156 1C13.1156 4.13647 10.5725 6.67854 7.43278 6.67854V8.17854C11.4 8.17854 14.6156 4.96583 14.6156 1H13.1156ZM2.90243 5.81053L0.329951 10.95L1.67131 11.6214L4.24379 6.48192L2.90243 5.81053ZM0.424616 11.766L6.85739 19.4803L8.00942 18.5197L1.57664 10.8054L0.424616 11.766ZM8.00942 19.4803L14.4422 11.766L13.2902 10.8054L6.85739 18.5197L8.00942 19.4803ZM14.5368 10.9499L11.9631 5.81039L10.6218 6.48205L13.1956 11.6215L14.5368 10.9499ZM8.18341 18.9999L8.18278 12.5714L6.68278 12.5715L6.68341 19.0001L8.18341 18.9999Z" fill="#0E1B2C"/>
</svg>