<svg xmlns="http://www.w3.org/2000/svg" width="23" height="23" viewBox="0 0 23 23" fill="none">
<g clip-path="url(#clip0_5_1023)">
<g clip-path="url(#clip1_5_1023)">
<g clip-path="url(#clip2_5_1023)">
<g clip-path="url(#clip3_5_1023)">
<path d="M0.745117 16.0207V7.25741C0.745117 7.25741 0.772617 7.21158 0.781784 7.18408C1.00178 6.07491 1.87262 5.33241 3.00012 5.32324C7.03345 5.32324 11.0576 5.32324 15.0909 5.32324C16.3743 5.32324 17.3368 6.29491 17.3459 7.58741C17.3459 8.08241 17.3459 8.57741 17.3459 9.07241C17.3459 9.12741 17.3551 9.17324 17.3643 9.22824L17.4193 9.26491C17.4651 9.20074 17.5018 9.12741 17.5568 9.07241C18.4184 8.21074 19.2709 7.34908 20.1326 6.48741C20.6001 6.02908 21.1501 5.88241 21.7643 6.12991C22.3601 6.36824 22.6901 6.83574 22.6901 7.47741C22.6993 10.2549 22.6901 13.0324 22.6901 15.8099C22.6901 16.1949 22.5434 16.5341 22.2776 16.8182C21.6726 17.4416 20.7559 17.4324 20.1051 16.7724C19.2434 15.9199 18.4001 15.0582 17.5384 14.2057C17.4834 14.1507 17.4285 14.1049 17.3368 14.0224C17.3368 14.5907 17.3368 15.1132 17.3368 15.6357C17.3368 15.8557 17.3185 16.0849 17.2635 16.2957C17.0068 17.3041 16.1268 17.9641 15.0451 17.9641C11.0393 17.9641 7.04262 17.9641 3.03678 17.9641C2.99095 17.9641 2.93595 17.9641 2.89012 17.9641C2.23928 17.9274 1.69845 17.6616 1.26762 17.1666C0.983451 16.8366 0.845951 16.4424 0.745117 16.0391V16.0207ZM7.24428 11.6299C7.24428 12.3907 7.24428 13.1424 7.24428 13.9032C7.24428 14.2241 7.36345 14.4716 7.65678 14.6182C7.94095 14.7557 8.20678 14.6916 8.43595 14.5174C9.42595 13.7566 10.4251 12.9957 11.4059 12.2257C11.8276 11.8957 11.8276 11.3732 11.4059 11.0524C10.4159 10.2732 9.41678 9.51241 8.41762 8.75158C8.22512 8.60491 8.01428 8.54991 7.77595 8.61408C7.41845 8.71491 7.24428 8.97158 7.23512 9.41158C7.23512 10.1449 7.23512 10.8874 7.23512 11.6207L7.24428 11.6299Z" fill="#FF7361"/>
</g>
</g>
</g>
</g>
<defs>
<clipPath id="clip0_5_1023">
<rect width="22" height="22" fill="white" transform="translate(0.726807 0.638672)"/>
</clipPath>
<clipPath id="clip1_5_1023">
<rect width="22" height="22" fill="white" transform="translate(0.726807 0.638672)"/>
</clipPath>
<clipPath id="clip2_5_1023">
<rect width="22" height="22" fill="white" transform="translate(0.726807 0.638672)"/>
</clipPath>
<clipPath id="clip3_5_1023">
<rect width="22" height="22" fill="white" transform="translate(0.726807 0.638672)"/>
</clipPath>
</defs>
</svg>