<svg xmlns="http://www.w3.org/2000/svg" width="20" height="20" viewBox="0 0 20 20" fill="none">
<path d="M6.42472 1H3.57143C2.15127 1 1 2.15127 1 3.57143V6.14286C1 13.2437 6.75634 19 13.8571 19H16.4286C17.8487 19 19 17.8487 19 16.4286V14.6518C19 14.1648 18.7249 13.7196 18.2893 13.5018L15.1831 11.9487C14.4833 11.5988 13.6358 11.9498 13.3884 12.6921L13.0055 13.8406C12.7575 14.5846 11.9944 15.0274 11.2254 14.8737C8.14766 14.2581 5.7419 11.8523 5.12635 8.7746C4.97255 8.00563 5.41543 7.24248 6.15939 6.99449L7.58477 6.51936C8.22213 6.30691 8.58846 5.63957 8.42552 4.98779L7.67204 1.97388C7.52895 1.40153 7.01469 1 6.42472 1Z" stroke="#0E1B2C" stroke-width="1.5"/>
</svg>