<svg xmlns="http://www.w3.org/2000/svg" width="105" height="63" viewBox="0 0 105 63" fill="none">
<g clip-path="url(#clip0_116_46)">
<path d="M52.5 10C23.5051 10 0 33.5051 0 62.5H105C105 33.5051 81.4949 10 52.5 10Z" fill="#ADCBFF"/>
<path d="M77.2708 3.86719H57.4549L48.0684 11.1678V22.3794C50.5019 22.7271 55.369 21.858 55.369 15.6003L61.1052 12.7322" stroke="#0E1B2C" stroke-width="2" stroke-linecap="round" stroke-linejoin="round"/>
<path d="M10 1H22.2546V29.4202H10" stroke="#0E1B2C" stroke-width="2" stroke-linecap="round" stroke-linejoin="round"/>
<path d="M94.9997 1H82.7451V29.4202H94.9997" stroke="#0E1B2C" stroke-width="2" stroke-linecap="round" stroke-linejoin="round"/>
<path d="M22.5146 3.86719H48.5883" stroke="#0E1B2C" stroke-width="2" stroke-linecap="round" stroke-linejoin="round"/>
<path d="M31.119 28.6365C33.1351 28.6365 34.7695 27.0022 34.7695 24.9862C34.7695 22.9702 33.1351 21.3359 31.119 21.3359C29.103 21.3359 27.4688 22.9702 27.4688 24.9862C27.4688 25.9808 27.8665 26.8825 28.5117 27.5409" stroke="#0E1B2C" stroke-width="2" stroke-linecap="round"/>
<path d="M31.6416 34.114C30.9964 33.4556 30.5986 32.5539 30.5986 31.5593C30.5986 29.5433 34.8403 26.0312 36.8563 26.0312C38.8723 26.0312 40.5066 27.6655 40.5066 29.6815C40.5066 31.004 38.6812 32.9703 36.8563 34.1667" stroke="#0E1B2C" stroke-width="2" stroke-linecap="round"/>
<path d="M40.244 39.6424C42.26 39.6424 45.1981 36.9124 45.1981 34.8964C45.1981 32.8804 43.5637 31.2461 41.5476 31.2461C39.5316 31.2461 36.5938 33.976 36.5938 35.992C36.5938 36.9867 36.9915 37.8884 37.6367 38.5467" stroke="#0E1B2C" stroke-width="2" stroke-linecap="round"/>
<path d="M45.2002 43.4102C44.8093 43.2245 44.4567 42.9714 44.1573 42.6659C43.5121 42.0075 43.1143 41.1058 43.1143 40.1112C43.1143 38.0952 44.7486 36.4609 46.7647 36.4609C48.7807 36.4609 50.415 38.0952 50.415 40.1112C50.415 40.9638 50.1226 41.7481 49.6328 42.3695" stroke="#0E1B2C" stroke-width="2" stroke-linecap="round"/>
<path d="M50.415 41.1542C50.415 42.1488 50.8128 43.0505 51.458 43.7089C52.1205 44.385 53.0439 44.8045 54.0653 44.8045C56.0814 44.8045 57.7157 43.1702 57.7157 41.1542C57.7157 39.1382 56.0814 37.5039 54.0653 37.5039" stroke="#0E1B2C" stroke-width="2" stroke-linecap="round"/>
<path d="M63.6398 35.6758C64.1729 36.3103 64.4939 37.1289 64.4939 38.0225C64.4939 40.0385 62.8596 41.6728 60.8436 41.6728C59.8222 41.6728 58.8988 41.2533 58.2363 40.5771L55.1074 37.2403" stroke="#0E1B2C" stroke-width="2" stroke-linecap="round"/>
<path d="M70.42 32.0273C70.953 32.6619 71.2741 33.4804 71.2741 34.374C71.2741 36.39 69.6398 38.0243 67.6238 38.0243C66.6024 38.0243 65.6789 37.6048 65.0164 36.9287L60.3232 32.2354" stroke="#0E1B2C" stroke-width="2" stroke-linecap="round"/>
<path d="M61.1064 12.7344L78.315 29.6823C78.8049 30.3036 79.0972 31.0879 79.0972 31.9405C79.0972 33.9565 77.4629 35.5908 75.4469 35.5908C74.4255 35.5908 73.5021 35.1713 72.8396 34.4952L65.539 27.1946" stroke="#0E1B2C" stroke-width="2" stroke-linecap="round"/>
</g>
<defs>
<clipPath id="clip0_116_46">
<rect width="105" height="63" fill="white"/>
</clipPath>
</defs>
</svg>