<svg xmlns="http://www.w3.org/2000/svg" width="105" height="71" viewBox="0 0 105 71" fill="none">
<g clip-path="url(#clip0_116_53)">
<path d="M52.5 18C23.5051 18 0 41.5051 0 70.5H105C105 41.5051 81.4949 18 52.5 18Z" fill="#B8AAEE"/>
<path d="M65.5714 54.9648V55.9648C66.1237 55.9648 66.5714 55.5171 66.5714 54.9648H65.5714ZM27 54.9648H26C26 55.5171 26.4477 55.9648 27 55.9648V54.9648ZM81 55V56C81.5523 56 82 55.5523 82 55H81ZM56.8571 12.5639C56.8571 18.3981 52.1253 23.1278 46.2857 23.1278V25.1278C53.2287 25.1278 58.8571 19.5039 58.8571 12.5639H56.8571ZM46.2857 23.1278C40.4461 23.1278 35.7143 18.3981 35.7143 12.5639H33.7143C33.7143 19.5039 39.3428 25.1278 46.2857 25.1278V23.1278ZM35.7143 12.5639C35.7143 6.72967 40.4461 2 46.2857 2V0C39.3428 0 33.7143 5.62387 33.7143 12.5639H35.7143ZM46.2857 2C52.1253 2 56.8571 6.72967 56.8571 12.5639H58.8571C58.8571 5.62387 53.2287 0 46.2857 0V2ZM65.5714 53.9648H27V55.9648H65.5714V53.9648ZM28 54.9648C28 54.9595 28 54.9541 28 54.9488C28 54.9434 28 54.9381 28 54.9327C28 54.9274 28 54.922 28 54.9167C28 54.9114 28 54.906 28 54.9007C28 54.8953 28 54.89 28 54.8846C28 54.8793 28 54.8739 28 54.8686C28 54.8633 28 54.8579 28 54.8526C28 54.8472 28 54.8419 28 54.8365C28 54.8312 28 54.8259 28 54.8205C28 54.8152 28 54.8098 28 54.8045C28 54.7992 28 54.7938 28 54.7885C28 54.7832 28 54.7778 28 54.7725C28 54.7671 28 54.7618 28 54.7565C28 54.7511 28 54.7458 28 54.7405C28 54.7351 28 54.7298 28 54.7245C28 54.7191 28 54.7138 28 54.7085C28 54.7031 28 54.6978 28 54.6925C28 54.6871 28 54.6818 28 54.6765C28 54.6711 28 54.6658 28 54.6605C28 54.6552 28 54.6498 28 54.6445C28 54.6392 28 54.6338 28 54.6285C28 54.6232 28 54.6179 28 54.6125C28 54.6072 28 54.6019 28 54.5966C28 54.5912 28 54.5859 28 54.5806C28 54.5753 28 54.5699 28 54.5646C28 54.5593 28 54.554 28 54.5486C28 54.5433 28 54.538 28 54.5327C28 54.5274 28 54.522 28 54.5167C28 54.5114 28 54.5061 28 54.5008C28 54.4954 28 54.4901 28 54.4848C28 54.4795 28 54.4742 28 54.4689C28 54.4635 28 54.4582 28 54.4529C28 54.4476 28 54.4423 28 54.437C28 54.4316 28 54.4263 28 54.421C28 54.4157 28 54.4104 28 54.4051C28 54.3998 28 54.3945 28 54.3891C28 54.3838 28 54.3785 28 54.3732C28 54.3679 28 54.3626 28 54.3573C28 54.352 28 54.3467 28 54.3414C28 54.336 28 54.3307 28 54.3254C28 54.3201 28 54.3148 28 54.3095C28 54.3042 28 54.2989 28 54.2936C28 54.2883 28 54.283 28 54.2777C28 54.2724 28 54.2671 28 54.2618C28 54.2565 28 54.2512 28 54.2459C28 54.2406 28 54.2353 28 54.23C28 54.2247 28 54.2194 28 54.2141C28 54.2088 28 54.2035 28 54.1982C28 54.1929 28 54.1876 28 54.1823C28 54.177 28 54.1717 28 54.1664C28 54.1611 28 54.1558 28 54.1505C28 54.1452 28 54.1399 28 54.1346C28 54.1293 28 54.124 28 54.1187C28 54.1134 28 54.1081 28 54.1029C28 54.0976 28 54.0923 28 54.087C28 54.0817 28 54.0764 28 54.0711C28 54.0658 28 54.0605 28 54.0552C28 54.05 28 54.0447 28 54.0394C28 54.0341 28 54.0288 28 54.0235C28 54.0182 28 54.0129 28 54.0077C28 54.0024 28 53.9971 28 53.9918C28 53.9865 28 53.9812 28 53.976C28 53.9707 28 53.9654 28 53.9601C28 53.9548 28 53.9495 28 53.9443C28 53.939 28 53.9337 28 53.9284C28 53.9231 28 53.9179 28 53.9126C28 53.9073 28 53.902 28 53.8968C28 53.8915 28 53.8862 28 53.8809C28 53.8757 28 53.8704 28 53.8651C28 53.8598 28 53.8545 28 53.8493C28 53.844 28 53.8387 28 53.8335C28 53.8282 28 53.8229 28 53.8176C28 53.8124 28 53.8071 28 53.8018C28 53.7966 28 53.7913 28 53.786C28 53.7808 28 53.7755 28 53.7702C28 53.7649 28 53.7597 28 53.7544C28 53.7491 28 53.7439 28 53.7386C28 53.7333 28 53.7281 28 53.7228C28 53.7175 28 53.7123 28 53.707C28 53.7018 28 53.6965 28 53.6912C28 53.686 28 53.6807 28 53.6754C28 53.6702 28 53.6649 28 53.6597C28 53.6544 28 53.6491 28 53.6439C28 53.6386 28 53.6334 28 53.6281C28 53.6229 28 53.6176 28 53.6123C28 53.6071 28 53.6018 28 53.5966C28 53.5913 28 53.5861 28 53.5808C28 53.5756 28 53.5703 28 53.565C28 53.5598 28 53.5545 28 53.5493C28 53.544 28 53.5388 28 53.5335C28 53.5283 28 53.523 28 53.5178C28 53.5125 28 53.5073 28 53.502C28 53.4968 28 53.4915 28 53.4863C28 53.481 28 53.4758 28 53.4706C28 53.4653 28 53.4601 28 53.4548C28 53.4496 28 53.4443 28 53.4391C28 53.4338 28 53.4286 28 53.4234C28 53.4181 28 53.4129 28 53.4076C28 53.4024 28 53.3971 28 53.3919C28 53.3867 28 53.3814 28 53.3762C28 53.3709 28 53.3657 28 53.3605C28 53.3552 28 53.35 28 53.3448C28 53.3395 28 53.3343 28 53.3291C28 53.3238 28 53.3186 28 53.3133C28 53.3081 28 53.3029 28 53.2976C28 53.2924 28 53.2872 28 53.2819C28 53.2767 28 53.2715 28 53.2663C28 53.261 28 53.2558 28 53.2506C28 53.2453 28 53.2401 28 53.2349C28 53.2296 28 53.2244 28 53.2192C28 53.214 28 53.2087 28 53.2035C28 53.1983 28 53.1931 28 53.1878C28 53.1826 28 53.1774 28 53.1722C28 53.1669 28 53.1617 28 53.1565C28 53.1513 28 53.1461 28 53.1408C28 53.1356 28 53.1304 28 53.1252C28 53.12 28 53.1147 28 53.1095C28 53.1043 28 53.0991 28 53.0939C28 53.0886 28 53.0834 28 53.0782C28 53.073 28 53.0678 28 53.0626C28 53.0573 28 53.0521 28 53.0469C28 53.0417 28 53.0365 28 53.0313C28 53.0261 28 53.0209 28 53.0156C28 53.0104 28 53.0052 28 53C28 52.9948 28 52.9896 28 52.9844C28 52.9792 28 52.974 28 52.9688C28 52.9636 28 52.9583 28 52.9531C28 52.9479 28 52.9427 28 52.9375C28 52.9323 28 52.9271 28 52.9219C28 52.9167 28 52.9115 28 52.9063C28 52.9011 28 52.8959 28 52.8907C28 52.8855 28 52.8803 28 52.8751C28 52.8699 28 52.8647 28 52.8595C28 52.8543 28 52.8491 28 52.8439C28 52.8387 28 52.8335 28 52.8283C28 52.8231 28 52.8179 28 52.8127C28 52.8075 28 52.8023 28 52.7971C28 52.7919 28 52.7867 28 52.7815C28 52.7764 28 52.7712 28 52.766C28 52.7608 28 52.7556 28 52.7504C28 52.7452 28 52.74 28 52.7348C28 52.7296 28 52.7245 28 52.7193C28 52.7141 28 52.7089 28 52.7037C28 52.6985 28 52.6933 28 52.6881C28 52.683 28 52.6778 28 52.6726C28 52.6674 28 52.6622 28 52.657C28 52.6519 28 52.6467 28 52.6415C28 52.6363 28 52.6311 28 52.626C28 52.6208 28 52.6156 28 52.6104C28 52.6052 28 52.6001 28 52.5949C28 52.5897 28 52.5845 28 52.5793C28 52.5742 28 52.569 28 52.5638C28 52.5586 28 52.5535 28 52.5483C28 52.5431 28 52.5379 28 52.5328C28 52.5276 28 52.5224 28 52.5173C28 52.5121 28 52.5069 28 52.5018C28 52.4966 28 52.4914 28 52.4862C28 52.4811 28 52.4759 28 52.4707C28 52.4656 28 52.4604 28 52.4552C28 52.4501 28 52.4449 28 52.4397C28 52.4346 28 52.4294 28 52.4242C28 52.4191 28 52.4139 28 52.4088C28 52.4036 28 52.3984 28 52.3933C28 52.3881 28 52.3829 28 52.3778C28 52.3726 28 52.3675 28 52.3623C28 52.3572 28 52.352 28 52.3468C28 52.3417 28 52.3365 28 52.3314C28 52.3262 28 52.3211 28 52.3159C28 52.3107 28 52.3056 28 52.3004C28 52.2953 28 52.2901 28 52.285C28 52.2798 28 52.2747 28 52.2695C28 52.2644 28 52.2592 28 52.2541C28 52.2489 28 52.2438 28 52.2386C28 52.2335 28 52.2283 28 52.2232C28 52.218 28 52.2129 28 52.2078C28 52.2026 28 52.1975 28 52.1923C28 52.1872 28 52.182 28 52.1769C28 52.1717 28 52.1666 28 52.1615C28 52.1563 28 52.1512 28 52.146C28 52.1409 28 52.1358 28 52.1306C28 52.1255 28 52.1203 28 52.1152C28 52.1101 28 52.1049 28 52.0998C28 52.0947 28 52.0895 28 52.0844C28 52.0793 28 52.0741 28 52.069C28 52.0639 28 52.0587 28 52.0536C28 52.0485 28 52.0433 28 52.0382C28 52.0331 28 52.0279 28 52.0228C28 52.0177 28 52.0125 28 52.0074C28 52.0023 28 51.9972 28 51.992C28 51.9869 28 51.9818 28 51.9767C28 51.9715 28 51.9664 28 51.9613C28 51.9562 28 51.951 28 51.9459C28 51.9408 28 51.9357 28 51.9305C28 51.9254 28 51.9203 28 51.9152C28 51.9101 28 51.9049 28 51.8998C28 51.8947 28 51.8896 28 51.8845C28 51.8793 28 51.8742 28 51.8691C28 51.864 28 51.8589 28 51.8538C28 51.8487 28 51.8435 28 51.8384C28 51.8333 28 51.8282 28 51.8231C28 51.818 28 51.8129 28 51.8078C28 51.8026 28 51.7975 28 51.7924C28 51.7873 28 51.7822 28 51.7771C28 51.772 28 51.7669 28 51.7618C28 51.7567 28 51.7516 28 51.7465C28 51.7413 28 51.7362 28 51.7311C28 51.726 28 51.7209 28 51.7158C28 51.7107 28 51.7056 28 51.7005C28 51.6954 28 51.6903 28 51.6852C28 51.6801 28 51.675 28 51.6699C28 51.6648 28 51.6597 28 51.6546C28 51.6495 28 51.6444 28 51.6393C28 51.6342 28 51.6292 28 51.6241C28 51.619 28 51.6139 28 51.6088C28 51.6037 28 51.5986 28 51.5935C28 51.5884 28 51.5833 28 51.5782C28 51.5731 28 51.568 28 51.563C28 51.5579 28 51.5528 28 51.5477C28 51.5426 28 51.5375 28 51.5324C28 51.5273 28 51.5223 28 51.5172C28 51.5121 28 51.507 28 51.5019C28 51.4968 28 51.4918 28 51.4867C28 51.4816 28 51.4765 28 51.4714C28 51.4664 28 51.4613 28 51.4562C28 51.4511 28 51.446 28 51.441C28 51.4359 28 51.4308 28 51.4257C28 51.4206 28 51.4156 28 51.4105C28 51.4054 28 51.4003 28 51.3953C28 51.3902 28 51.3851 28 51.3801C28 51.375 28 51.3699 28 51.3648C28 51.3598 28 51.3547 28 51.3496C28 51.3446 28 51.3395 28 51.3344C28 51.3294 28 51.3243 28 51.3192C28 51.3142 28 51.3091 28 51.304C28 51.299 28 51.2939 28 51.2888C28 51.2838 28 51.2787 28 51.2736C28 51.2686 28 51.2635 28 51.2585C28 51.2534 28 51.2483 28 51.2433C28 51.2382 28 51.2332 28 51.2281C28 51.223 28 51.218 28 51.2129C28 51.2079 28 51.2028 28 51.1978C28 51.1927 28 51.1876 28 51.1826C28 51.1775 28 51.1725 28 51.1674C28 51.1624 28 51.1573 28 51.1523C28 51.1472 28 51.1422 28 51.1371C28 51.1321 28 51.127 28 51.122C28 51.1169 28 51.1119 28 51.1068C28 51.1018 28 51.0967 28 51.0917C28 51.0867 28 51.0816 28 51.0766C28 51.0715 28 51.0665 28 51.0614C28 51.0564 28 51.0514 28 51.0463C28 51.0413 28 51.0362 28 51.0312C28 51.0262 28 51.0211 28 51.0161C28 51.011 28 51.006 28 51.001C28 50.9959 28 50.9909 28 50.9859C28 50.9808 28 50.9758 28 50.9708C28 50.9657 28 50.9607 28 50.9557C28 50.9506 28 50.9456 28 50.9406C28 50.9355 28 50.9305 28 50.9255C28 50.9204 28 50.9154 28 50.9104C28 50.9054 28 50.9003 28 50.8953C28 50.8903 28 50.8853 28 50.8802C28 50.8752 28 50.8702 28 50.8652C28 50.8601 28 50.8551 28 50.8501C28 50.8451 28 50.84 28 50.835C28 50.83 28 50.825 28 50.82C28 50.8149 28 50.8099 28 50.8049C28 50.7999 28 50.7949 28 50.7899C28 50.7848 28 50.7798 28 50.7748C28 50.7698 28 50.7648 28 50.7598C28 50.7547 28 50.7497 28 50.7447C28 50.7397 28 50.7347 28 50.7297C28 50.7247 28 50.7197 28 50.7147C28 50.7097 28 50.7046 28 50.6996C28 50.6946 28 50.6896 28 50.6846C28 50.6796 28 50.6746 28 50.6696C28 50.6646 28 50.6596 28 50.6546C28 50.6496 28 50.6446 28 50.6396C28 50.6346 28 50.6296 28 50.6246C28 50.6196 28 50.6146 28 50.6096C28 50.6046 28 50.5996 28 50.5946C28 50.5896 28 50.5846 28 50.5796C28 50.5746 28 50.5696 28 50.5646C28 50.5596 28 50.5546 28 50.5496C28 50.5446 28 50.5396 28 50.5347C28 50.5297 28 50.5247 28 50.5197C28 50.5147 28 50.5097 28 50.5047C28 50.4997 28 50.4947 28 50.4898C28 50.4848 28 50.4798 28 50.4748C28 50.4698 28 50.4648 28 50.4599C28 50.4549 28 50.4499 28 50.4449C28 50.4399 28 50.4349 28 50.43C28 50.425 28 50.42 28 50.415C28 50.41 28 50.4051 28 50.4001C28 50.3951 28 50.3901 28 50.3852C28 50.3802 28 50.3752 28 50.3702C28 50.3653 28 50.3603 28 50.3553C28 50.3503 28 50.3454 28 50.3404C28 50.3354 28 50.3304 28 50.3255C28 50.3205 28 50.3155 28 50.3106C28 50.3056 28 50.3006 28 50.2957C28 50.2907 28 50.2857 28 50.2808C28 50.2758 28 50.2708 28 50.2659C28 50.2609 28 50.2559 28 50.251C28 50.246 28 50.2411 28 50.2361C28 50.2311 28 50.2262 28 50.2212C28 50.2163 28 50.2113 28 50.2063C28 50.2014 28 50.1964 28 50.1915C28 50.1865 28 50.1816 28 50.1766C28 50.1716 28 50.1667 28 50.1617C28 50.1568 28 50.1518 28 50.1469C28 50.1419 28 50.137 28 50.132C28 50.1271 28 50.1221 28 50.1172C28 50.1122 28 50.1073 28 50.1023C28 50.0974 28 50.0924 28 50.0875C28 50.0826 28 50.0776 28 50.0727C28 50.0677 28 50.0628 28 50.0578C28 50.0529 28 50.048 28 50.043C28 50.0381 28 50.0331 28 50.0282C28 50.0233 28 50.0183 28 50.0134C28 50.0084 28 50.0035 28 49.9986C28 49.9936 28 49.9887 28 49.9838C28 49.9788 28 49.9739 28 49.969C28 49.964 28 49.9591 28 49.9542C28 49.9492 28 49.9443 28 49.9394C28 49.9344 28 49.9295 28 49.9246C28 49.9197 28 49.9147 28 49.9098C28 49.9049 28 49.8999 28 49.895C28 49.8901 28 49.8852 28 49.8802C28 49.8753 28 49.8704 28 49.8655C28 49.8606 28 49.8556 28 49.8507C28 49.8458 28 49.8409 28 49.836C28 49.831 28 49.8261 28 49.8212C28 49.8163 28 49.8114 28 49.8064C28 49.8015 28 49.7966 28 49.7917C28 49.7868 28 49.7819 28 49.777C28 49.7721 28 49.7671 28 49.7622C28 49.7573 28 49.7524 28 49.7475C28 49.7426 28 49.7377 28 49.7328C28 49.7279 28 49.723 28 49.7181C28 49.7131 28 49.7082 28 49.7033C28 49.6984 28 49.6935 28 49.6886C28 49.6837 28 49.6788 28 49.6739C28 49.669 28 49.6641 28 49.6592C28 49.6543 28 49.6494 28 49.6445C28 49.6396 28 49.6347 28 49.6298C28 49.6249 28 49.62 28 49.6151C28 49.6102 28 49.6053 28 49.6005C28 49.5956 28 49.5907 28 49.5858C28 49.5809 28 49.576 28 49.5711C28 49.5662 28 49.5613 28 49.5564C28 49.5515 28 49.5467 28 49.5418C28 49.5369 28 49.532 28 49.5271C28 49.5222 28 49.5173 28 49.5125C28 49.5076 28 49.5027 28 49.4978C28 49.4929 28 49.488 28 49.4832C28 49.4783 28 49.4734 28 49.4685C28 49.4636 28 49.4588 28 49.4539C28 49.449 28 49.4441 28 49.4393C28 49.4344 28 49.4295 28 49.4246C28 49.4198 28 49.4149 28 49.41C28 49.4051 28 49.4003 28 49.3954C28 49.3905 28 49.3857 28 49.3808C28 49.3759 28 49.371 28 49.3662C28 49.3613 28 49.3564 28 49.3516C28 49.3467 28 49.3419 28 49.337C28 49.3321 28 49.3273 28 49.3224C28 49.3175 28 49.3127 28 49.3078C28 49.3029 28 49.2981 28 49.2932C28 49.2884 28 49.2835 28 49.2787C28 49.2738 28 49.2689 28 49.2641C28 49.2592 28 49.2544 28 49.2495C28 49.2447 28 49.2398 28 49.235C28 49.2301 28 49.2252 28 49.2204C28 49.2155 28 49.2107 28 49.2058C28 49.201 28 49.1961 28 49.1913C28 49.1864 28 49.1816 28 49.1768C28 49.1719 28 49.1671 28 49.1622C28 49.1574 28 49.1525 28 49.1477C28 49.1428 28 49.138 28 49.1332C28 49.1283 28 49.1235 28 49.1186C28 49.1138 28 49.109 28 49.1041C28 49.0993 28 49.0944 28 49.0896C28 49.0848 28 49.0799 28 49.0751C28 49.0703 28 49.0654 28 49.0606C28 49.0558 28 49.0509 28 49.0461C28 49.0413 28 49.0364 28 49.0316C28 49.0268 28 49.022 28 49.0171C28 49.0123 28 49.0075 28 49.0026C28 48.9978 28 48.993 28 48.9882C28 48.9833 28 48.9785 28 48.9737C28 48.9689 28 48.964 28 48.9592C28 48.9544 28 48.9496 28 48.9448C28 48.9399 28 48.9351 28 48.9303C28 48.9255 28 48.9207 28 48.9159C28 48.911 28 48.9062 28 48.9014C28 48.8966 28 48.8918 28 48.887C28 48.8822 28 48.8773 28 48.8725C28 48.8677 28 48.8629 28 48.8581C28 48.8533 28 48.8485 28 48.8437C28 48.8389 28 48.8341 28 48.8293C28 48.8244 28 48.8196 28 48.8148C28 48.81 28 48.8052 28 48.8004C28 48.7956 28 48.7908 28 48.786C28 48.7812 28 48.7764 28 48.7716C28 48.7668 28 48.762 28 48.7572C28 48.7524 28 48.7476 28 48.7428C28 48.738 28 48.7332 28 48.7284C28 48.7236 28 48.7189 28 48.7141C28 48.7093 28 48.7045 28 48.6997C28 48.6949 28 48.6901 28 48.6853C28 48.6805 28 48.6757 28 48.671C28 48.6662 28 48.6614 28 48.6566C28 48.6518 28 48.647 28 48.6422C28 48.6375 28 48.6327 28 48.6279C28 48.6231 28 48.6183 28 48.6135C28 48.6088 28 48.604 28 48.5992C28 48.5944 28 48.5896 28 48.5849C28 48.5801 28 48.5753 28 48.5705C28 48.5658 28 48.561 28 48.5562C28 48.5514 28 48.5467 28 48.5419C28 48.5371 28 48.5323 28 48.5276C28 48.5228 28 48.518 28 48.5133C28 48.5085 28 48.5037 28 48.499C28 48.4942 28 48.4894 28 48.4847C28 48.4799 28 48.4751 28 48.4704C28 48.4656 28 48.4608 28 48.4561C28 48.4513 28 48.4466 28 48.4418C28 48.437 28 48.4323 28 48.4275C28 48.4228 28 48.418 28 48.4133C28 48.4085 28 48.4037 28 48.399C28 48.3942 28 48.3895 28 48.3847C28 48.38 28 48.3752 28 48.3705C28 48.3657 28 48.361 28 48.3562C28 48.3515 28 48.3467 28 48.342C28 48.3372 28 48.3325 28 48.3277C28 48.323 28 48.3182 28 48.3135C28 48.3088 28 48.304 28 48.2993C28 48.2945 28 48.2898 28 48.285C28 48.2803 28 48.2756 28 48.2708C28 48.2661 28 48.2613 28 48.2566C28 48.2519 28 48.2471 28 48.2424C28 48.2377 28 48.2329 28 48.2282C28 48.2235 28 48.2187 28 48.214C28 48.2093 28 48.2045 28 48.1998C28 48.1951 28 48.1903 28 48.1856C28 48.1809 28 48.1762 28 48.1714C28 48.1667 28 48.162 28 48.1572C28 48.1525 28 48.1478 28 48.1431C28 48.1384 28 48.1336 28 48.1289C28 48.1242 28 48.1195 28 48.1147C28 48.11 28 48.1053 28 48.1006C28 48.0959 28 48.0912 28 48.0864C28 48.0817 28 48.077 28 48.0723C28 48.0676 28 48.0629 28 48.0582C28 48.0534 28 48.0487 28 48.044C28 48.0393 28 48.0346 28 48.0299C28 48.0252 28 48.0205 28 48.0158C28 48.0111 28 48.0064 28 48.0016C28 47.9969 28 47.9922 28 47.9875C28 47.9828 28 47.9781 28 47.9734C28 47.9687 28 47.964 28 47.9593C28 47.9546 28 47.9499 28 47.9452C28 47.9405 28 47.9358 28 47.9311C28 47.9264 28 47.9217 28 47.917C28 47.9123 28 47.9077 28 47.903C28 47.8983 28 47.8936 28 47.8889C28 47.8842 28 47.8795 28 47.8748C28 47.8701 28 47.8654 28 47.8608C28 47.8561 28 47.8514 28 47.8467C28 47.842 28 47.8373 28 47.8326C28 47.828 28 47.8233 28 47.8186C28 47.8139 28 47.8092 28 47.8045C28 47.7999 28 47.7952 28 47.7905C28 47.7858 28 47.7812 28 47.7765C28 47.7718 28 47.7671 28 47.7624C28 47.7578 28 47.7531 28 47.7484C28 47.7438 28 47.7391 28 47.7344C28 47.7297 28 47.7251 28 47.7204C28 47.7157 28 47.7111 28 47.7064C28 47.7017 28 47.6971 28 47.6924C28 47.6877 28 47.6831 28 47.6784C28 47.6737 28 47.6691 28 47.6644C28 47.6597 28 47.6551 28 47.6504C28 47.6458 28 47.6411 28 47.6364C28 47.6318 28 47.6271 28 47.6225C28 47.6178 28 47.6132 28 47.6085C28 47.6039 28 47.5992 28 47.5945C28 47.5899 28 47.5852 28 47.5806C28 47.5759 28 47.5713 28 47.5666C28 47.562 28 47.5573 28 47.5527C28 47.548 28 47.5434 28 47.5388C28 47.5341 28 47.5295 28 47.5248C28 47.5202 28 47.5155 28 47.5109C28 47.5063 28 47.5016 28 47.497C28 47.4923 28 47.4877 28 47.4831C28 47.4784 28 47.4738 28 47.4691C28 47.4645 28 47.4599 28 47.4552C28 47.4506 28 47.446 28 47.4413C28 47.4367 28 47.4321 28 47.4274C28 47.4228 28 47.4182 28 47.4136C28 47.4089 28 47.4043 28 47.3997C28 47.395 28 47.3904 28 47.3858C28 47.3812 28 47.3765 28 47.3719C28 47.3673 28 47.3627 28 47.3581C28 47.3534 28 47.3488 28 47.3442C28 47.3396 28 47.335 28 47.3303C28 47.3257 28 47.3211 28 47.3165C28 47.3119 28 47.3073 28 47.3026C28 47.298 28 47.2934 28 47.2888C28 47.2842 28 47.2796 28 47.275C28 47.2704 28 47.2657 28 47.2611H26C26 47.2657 26 47.2704 26 47.275C26 47.2796 26 47.2842 26 47.2888C26 47.2934 26 47.298 26 47.3026C26 47.3073 26 47.3119 26 47.3165C26 47.3211 26 47.3257 26 47.3303C26 47.335 26 47.3396 26 47.3442C26 47.3488 26 47.3534 26 47.3581C26 47.3627 26 47.3673 26 47.3719C26 47.3765 26 47.3812 26 47.3858C26 47.3904 26 47.395 26 47.3997C26 47.4043 26 47.4089 26 47.4136C26 47.4182 26 47.4228 26 47.4274C26 47.4321 26 47.4367 26 47.4413C26 47.446 26 47.4506 26 47.4552C26 47.4599 26 47.4645 26 47.4691C26 47.4738 26 47.4784 26 47.4831C26 47.4877 26 47.4923 26 47.497C26 47.5016 26 47.5063 26 47.5109C26 47.5155 26 47.5202 26 47.5248C26 47.5295 26 47.5341 26 47.5388C26 47.5434 26 47.548 26 47.5527C26 47.5573 26 47.562 26 47.5666C26 47.5713 26 47.5759 26 47.5806C26 47.5852 26 47.5899 26 47.5945C26 47.5992 26 47.6039 26 47.6085C26 47.6132 26 47.6178 26 47.6225C26 47.6271 26 47.6318 26 47.6364C26 47.6411 26 47.6458 26 47.6504C26 47.6551 26 47.6597 26 47.6644C26 47.6691 26 47.6737 26 47.6784C26 47.6831 26 47.6877 26 47.6924C26 47.6971 26 47.7017 26 47.7064C26 47.7111 26 47.7157 26 47.7204C26 47.7251 26 47.7297 26 47.7344C26 47.7391 26 47.7438 26 47.7484C26 47.7531 26 47.7578 26 47.7624C26 47.7671 26 47.7718 26 47.7765C26 47.7812 26 47.7858 26 47.7905C26 47.7952 26 47.7999 26 47.8045C26 47.8092 26 47.8139 26 47.8186C26 47.8233 26 47.828 26 47.8326C26 47.8373 26 47.842 26 47.8467C26 47.8514 26 47.8561 26 47.8608C26 47.8654 26 47.8701 26 47.8748C26 47.8795 26 47.8842 26 47.8889C26 47.8936 26 47.8983 26 47.903C26 47.9077 26 47.9123 26 47.917C26 47.9217 26 47.9264 26 47.9311C26 47.9358 26 47.9405 26 47.9452C26 47.9499 26 47.9546 26 47.9593C26 47.964 26 47.9687 26 47.9734C26 47.9781 26 47.9828 26 47.9875C26 47.9922 26 47.9969 26 48.0016C26 48.0064 26 48.0111 26 48.0158C26 48.0205 26 48.0252 26 48.0299C26 48.0346 26 48.0393 26 48.044C26 48.0487 26 48.0534 26 48.0582C26 48.0629 26 48.0676 26 48.0723C26 48.077 26 48.0817 26 48.0864C26 48.0912 26 48.0959 26 48.1006C26 48.1053 26 48.11 26 48.1147C26 48.1195 26 48.1242 26 48.1289C26 48.1336 26 48.1384 26 48.1431C26 48.1478 26 48.1525 26 48.1572C26 48.162 26 48.1667 26 48.1714C26 48.1762 26 48.1809 26 48.1856C26 48.1903 26 48.1951 26 48.1998C26 48.2045 26 48.2093 26 48.214C26 48.2187 26 48.2235 26 48.2282C26 48.2329 26 48.2377 26 48.2424C26 48.2471 26 48.2519 26 48.2566C26 48.2613 26 48.2661 26 48.2708C26 48.2756 26 48.2803 26 48.285C26 48.2898 26 48.2945 26 48.2993C26 48.304 26 48.3088 26 48.3135C26 48.3182 26 48.323 26 48.3277C26 48.3325 26 48.3372 26 48.342C26 48.3467 26 48.3515 26 48.3562C26 48.361 26 48.3657 26 48.3705C26 48.3752 26 48.38 26 48.3847C26 48.3895 26 48.3942 26 48.399C26 48.4037 26 48.4085 26 48.4133C26 48.418 26 48.4228 26 48.4275C26 48.4323 26 48.437 26 48.4418C26 48.4466 26 48.4513 26 48.4561C26 48.4608 26 48.4656 26 48.4704C26 48.4751 26 48.4799 26 48.4847C26 48.4894 26 48.4942 26 48.499C26 48.5037 26 48.5085 26 48.5133C26 48.518 26 48.5228 26 48.5276C26 48.5323 26 48.5371 26 48.5419C26 48.5467 26 48.5514 26 48.5562C26 48.561 26 48.5658 26 48.5705C26 48.5753 26 48.5801 26 48.5849C26 48.5896 26 48.5944 26 48.5992C26 48.604 26 48.6088 26 48.6135C26 48.6183 26 48.6231 26 48.6279C26 48.6327 26 48.6375 26 48.6422C26 48.647 26 48.6518 26 48.6566C26 48.6614 26 48.6662 26 48.671C26 48.6757 26 48.6805 26 48.6853C26 48.6901 26 48.6949 26 48.6997C26 48.7045 26 48.7093 26 48.7141C26 48.7189 26 48.7236 26 48.7284C26 48.7332 26 48.738 26 48.7428C26 48.7476 26 48.7524 26 48.7572C26 48.762 26 48.7668 26 48.7716C26 48.7764 26 48.7812 26 48.786C26 48.7908 26 48.7956 26 48.8004C26 48.8052 26 48.81 26 48.8148C26 48.8196 26 48.8244 26 48.8293C26 48.8341 26 48.8389 26 48.8437C26 48.8485 26 48.8533 26 48.8581C26 48.8629 26 48.8677 26 48.8725C26 48.8773 26 48.8822 26 48.887C26 48.8918 26 48.8966 26 48.9014C26 48.9062 26 48.911 26 48.9159C26 48.9207 26 48.9255 26 48.9303C26 48.9351 26 48.9399 26 48.9448C26 48.9496 26 48.9544 26 48.9592C26 48.964 26 48.9689 26 48.9737C26 48.9785 26 48.9833 26 48.9882C26 48.993 26 48.9978 26 49.0026C26 49.0075 26 49.0123 26 49.0171C26 49.022 26 49.0268 26 49.0316C26 49.0364 26 49.0413 26 49.0461C26 49.0509 26 49.0558 26 49.0606C26 49.0654 26 49.0703 26 49.0751C26 49.0799 26 49.0848 26 49.0896C26 49.0944 26 49.0993 26 49.1041C26 49.109 26 49.1138 26 49.1186C26 49.1235 26 49.1283 26 49.1332C26 49.138 26 49.1428 26 49.1477C26 49.1525 26 49.1574 26 49.1622C26 49.1671 26 49.1719 26 49.1768C26 49.1816 26 49.1864 26 49.1913C26 49.1961 26 49.201 26 49.2058C26 49.2107 26 49.2155 26 49.2204C26 49.2252 26 49.2301 26 49.235C26 49.2398 26 49.2447 26 49.2495C26 49.2544 26 49.2592 26 49.2641C26 49.2689 26 49.2738 26 49.2787C26 49.2835 26 49.2884 26 49.2932C26 49.2981 26 49.3029 26 49.3078C26 49.3127 26 49.3175 26 49.3224C26 49.3273 26 49.3321 26 49.337C26 49.3419 26 49.3467 26 49.3516C26 49.3564 26 49.3613 26 49.3662C26 49.371 26 49.3759 26 49.3808C26 49.3857 26 49.3905 26 49.3954C26 49.4003 26 49.4051 26 49.41C26 49.4149 26 49.4198 26 49.4246C26 49.4295 26 49.4344 26 49.4393C26 49.4441 26 49.449 26 49.4539C26 49.4588 26 49.4636 26 49.4685C26 49.4734 26 49.4783 26 49.4832C26 49.488 26 49.4929 26 49.4978C26 49.5027 26 49.5076 26 49.5125C26 49.5173 26 49.5222 26 49.5271C26 49.532 26 49.5369 26 49.5418C26 49.5467 26 49.5515 26 49.5564C26 49.5613 26 49.5662 26 49.5711C26 49.576 26 49.5809 26 49.5858C26 49.5907 26 49.5956 26 49.6005C26 49.6053 26 49.6102 26 49.6151C26 49.62 26 49.6249 26 49.6298C26 49.6347 26 49.6396 26 49.6445C26 49.6494 26 49.6543 26 49.6592C26 49.6641 26 49.669 26 49.6739C26 49.6788 26 49.6837 26 49.6886C26 49.6935 26 49.6984 26 49.7033C26 49.7082 26 49.7131 26 49.7181C26 49.723 26 49.7279 26 49.7328C26 49.7377 26 49.7426 26 49.7475C26 49.7524 26 49.7573 26 49.7622C26 49.7671 26 49.7721 26 49.777C26 49.7819 26 49.7868 26 49.7917C26 49.7966 26 49.8015 26 49.8064C26 49.8114 26 49.8163 26 49.8212C26 49.8261 26 49.831 26 49.836C26 49.8409 26 49.8458 26 49.8507C26 49.8556 26 49.8606 26 49.8655C26 49.8704 26 49.8753 26 49.8802C26 49.8852 26 49.8901 26 49.895C26 49.8999 26 49.9049 26 49.9098C26 49.9147 26 49.9197 26 49.9246C26 49.9295 26 49.9344 26 49.9394C26 49.9443 26 49.9492 26 49.9542C26 49.9591 26 49.964 26 49.969C26 49.9739 26 49.9788 26 49.9838C26 49.9887 26 49.9936 26 49.9986C26 50.0035 26 50.0084 26 50.0134C26 50.0183 26 50.0233 26 50.0282C26 50.0331 26 50.0381 26 50.043C26 50.048 26 50.0529 26 50.0578C26 50.0628 26 50.0677 26 50.0727C26 50.0776 26 50.0826 26 50.0875C26 50.0924 26 50.0974 26 50.1023C26 50.1073 26 50.1122 26 50.1172C26 50.1221 26 50.1271 26 50.132C26 50.137 26 50.1419 26 50.1469C26 50.1518 26 50.1568 26 50.1617C26 50.1667 26 50.1716 26 50.1766C26 50.1816 26 50.1865 26 50.1915C26 50.1964 26 50.2014 26 50.2063C26 50.2113 26 50.2163 26 50.2212C26 50.2262 26 50.2311 26 50.2361C26 50.2411 26 50.246 26 50.251C26 50.2559 26 50.2609 26 50.2659C26 50.2708 26 50.2758 26 50.2808C26 50.2857 26 50.2907 26 50.2957C26 50.3006 26 50.3056 26 50.3106C26 50.3155 26 50.3205 26 50.3255C26 50.3304 26 50.3354 26 50.3404C26 50.3454 26 50.3503 26 50.3553C26 50.3603 26 50.3653 26 50.3702C26 50.3752 26 50.3802 26 50.3852C26 50.3901 26 50.3951 26 50.4001C26 50.4051 26 50.41 26 50.415C26 50.42 26 50.425 26 50.43C26 50.4349 26 50.4399 26 50.4449C26 50.4499 26 50.4549 26 50.4599C26 50.4648 26 50.4698 26 50.4748C26 50.4798 26 50.4848 26 50.4898C26 50.4947 26 50.4997 26 50.5047C26 50.5097 26 50.5147 26 50.5197C26 50.5247 26 50.5297 26 50.5347C26 50.5396 26 50.5446 26 50.5496C26 50.5546 26 50.5596 26 50.5646C26 50.5696 26 50.5746 26 50.5796C26 50.5846 26 50.5896 26 50.5946C26 50.5996 26 50.6046 26 50.6096C26 50.6146 26 50.6196 26 50.6246C26 50.6296 26 50.6346 26 50.6396C26 50.6446 26 50.6496 26 50.6546C26 50.6596 26 50.6646 26 50.6696C26 50.6746 26 50.6796 26 50.6846C26 50.6896 26 50.6946 26 50.6996C26 50.7046 26 50.7097 26 50.7147C26 50.7197 26 50.7247 26 50.7297C26 50.7347 26 50.7397 26 50.7447C26 50.7497 26 50.7547 26 50.7598C26 50.7648 26 50.7698 26 50.7748C26 50.7798 26 50.7848 26 50.7899C26 50.7949 26 50.7999 26 50.8049C26 50.8099 26 50.8149 26 50.82C26 50.825 26 50.83 26 50.835C26 50.84 26 50.8451 26 50.8501C26 50.8551 26 50.8601 26 50.8652C26 50.8702 26 50.8752 26 50.8802C26 50.8853 26 50.8903 26 50.8953C26 50.9003 26 50.9054 26 50.9104C26 50.9154 26 50.9204 26 50.9255C26 50.9305 26 50.9355 26 50.9406C26 50.9456 26 50.9506 26 50.9557C26 50.9607 26 50.9657 26 50.9708C26 50.9758 26 50.9808 26 50.9859C26 50.9909 26 50.9959 26 51.001C26 51.006 26 51.011 26 51.0161C26 51.0211 26 51.0262 26 51.0312C26 51.0362 26 51.0413 26 51.0463C26 51.0514 26 51.0564 26 51.0614C26 51.0665 26 51.0715 26 51.0766C26 51.0816 26 51.0867 26 51.0917C26 51.0967 26 51.1018 26 51.1068C26 51.1119 26 51.1169 26 51.122C26 51.127 26 51.1321 26 51.1371C26 51.1422 26 51.1472 26 51.1523C26 51.1573 26 51.1624 26 51.1674C26 51.1725 26 51.1775 26 51.1826C26 51.1876 26 51.1927 26 51.1978C26 51.2028 26 51.2079 26 51.2129C26 51.218 26 51.223 26 51.2281C26 51.2332 26 51.2382 26 51.2433C26 51.2483 26 51.2534 26 51.2585C26 51.2635 26 51.2686 26 51.2736C26 51.2787 26 51.2838 26 51.2888C26 51.2939 26 51.299 26 51.304C26 51.3091 26 51.3142 26 51.3192C26 51.3243 26 51.3294 26 51.3344C26 51.3395 26 51.3446 26 51.3496C26 51.3547 26 51.3598 26 51.3648C26 51.3699 26 51.375 26 51.3801C26 51.3851 26 51.3902 26 51.3953C26 51.4003 26 51.4054 26 51.4105C26 51.4156 26 51.4206 26 51.4257C26 51.4308 26 51.4359 26 51.441C26 51.446 26 51.4511 26 51.4562C26 51.4613 26 51.4664 26 51.4714C26 51.4765 26 51.4816 26 51.4867C26 51.4918 26 51.4968 26 51.5019C26 51.507 26 51.5121 26 51.5172C26 51.5223 26 51.5273 26 51.5324C26 51.5375 26 51.5426 26 51.5477C26 51.5528 26 51.5579 26 51.563C26 51.568 26 51.5731 26 51.5782C26 51.5833 26 51.5884 26 51.5935C26 51.5986 26 51.6037 26 51.6088C26 51.6139 26 51.619 26 51.6241C26 51.6292 26 51.6342 26 51.6393C26 51.6444 26 51.6495 26 51.6546C26 51.6597 26 51.6648 26 51.6699C26 51.675 26 51.6801 26 51.6852C26 51.6903 26 51.6954 26 51.7005C26 51.7056 26 51.7107 26 51.7158C26 51.7209 26 51.726 26 51.7311C26 51.7362 26 51.7413 26 51.7465C26 51.7516 26 51.7567 26 51.7618C26 51.7669 26 51.772 26 51.7771C26 51.7822 26 51.7873 26 51.7924C26 51.7975 26 51.8026 26 51.8078C26 51.8129 26 51.818 26 51.8231C26 51.8282 26 51.8333 26 51.8384C26 51.8435 26 51.8487 26 51.8538C26 51.8589 26 51.864 26 51.8691C26 51.8742 26 51.8793 26 51.8845C26 51.8896 26 51.8947 26 51.8998C26 51.9049 26 51.9101 26 51.9152C26 51.9203 26 51.9254 26 51.9305C26 51.9357 26 51.9408 26 51.9459C26 51.951 26 51.9562 26 51.9613C26 51.9664 26 51.9715 26 51.9767C26 51.9818 26 51.9869 26 51.992C26 51.9972 26 52.0023 26 52.0074C26 52.0125 26 52.0177 26 52.0228C26 52.0279 26 52.0331 26 52.0382C26 52.0433 26 52.0485 26 52.0536C26 52.0587 26 52.0639 26 52.069C26 52.0741 26 52.0793 26 52.0844C26 52.0895 26 52.0947 26 52.0998C26 52.1049 26 52.1101 26 52.1152C26 52.1203 26 52.1255 26 52.1306C26 52.1358 26 52.1409 26 52.146C26 52.1512 26 52.1563 26 52.1615C26 52.1666 26 52.1717 26 52.1769C26 52.182 26 52.1872 26 52.1923C26 52.1975 26 52.2026 26 52.2078C26 52.2129 26 52.218 26 52.2232C26 52.2283 26 52.2335 26 52.2386C26 52.2438 26 52.2489 26 52.2541C26 52.2592 26 52.2644 26 52.2695C26 52.2747 26 52.2798 26 52.285C26 52.2901 26 52.2953 26 52.3004C26 52.3056 26 52.3107 26 52.3159C26 52.3211 26 52.3262 26 52.3314C26 52.3365 26 52.3417 26 52.3468C26 52.352 26 52.3572 26 52.3623C26 52.3675 26 52.3726 26 52.3778C26 52.3829 26 52.3881 26 52.3933C26 52.3984 26 52.4036 26 52.4088C26 52.4139 26 52.4191 26 52.4242C26 52.4294 26 52.4346 26 52.4397C26 52.4449 26 52.4501 26 52.4552C26 52.4604 26 52.4656 26 52.4707C26 52.4759 26 52.4811 26 52.4862C26 52.4914 26 52.4966 26 52.5018C26 52.5069 26 52.5121 26 52.5173C26 52.5224 26 52.5276 26 52.5328C26 52.5379 26 52.5431 26 52.5483C26 52.5535 26 52.5586 26 52.5638C26 52.569 26 52.5742 26 52.5793C26 52.5845 26 52.5897 26 52.5949C26 52.6001 26 52.6052 26 52.6104C26 52.6156 26 52.6208 26 52.626C26 52.6311 26 52.6363 26 52.6415C26 52.6467 26 52.6519 26 52.657C26 52.6622 26 52.6674 26 52.6726C26 52.6778 26 52.683 26 52.6881C26 52.6933 26 52.6985 26 52.7037C26 52.7089 26 52.7141 26 52.7193C26 52.7245 26 52.7296 26 52.7348C26 52.74 26 52.7452 26 52.7504C26 52.7556 26 52.7608 26 52.766C26 52.7712 26 52.7764 26 52.7815C26 52.7867 26 52.7919 26 52.7971C26 52.8023 26 52.8075 26 52.8127C26 52.8179 26 52.8231 26 52.8283C26 52.8335 26 52.8387 26 52.8439C26 52.8491 26 52.8543 26 52.8595C26 52.8647 26 52.8699 26 52.8751C26 52.8803 26 52.8855 26 52.8907C26 52.8959 26 52.9011 26 52.9063C26 52.9115 26 52.9167 26 52.9219C26 52.9271 26 52.9323 26 52.9375C26 52.9427 26 52.9479 26 52.9531C26 52.9583 26 52.9636 26 52.9688C26 52.974 26 52.9792 26 52.9844C26 52.9896 26 52.9948 26 53C26 53.0052 26 53.0104 26 53.0156C26 53.0209 26 53.0261 26 53.0313C26 53.0365 26 53.0417 26 53.0469C26 53.0521 26 53.0573 26 53.0626C26 53.0678 26 53.073 26 53.0782C26 53.0834 26 53.0886 26 53.0939C26 53.0991 26 53.1043 26 53.1095C26 53.1147 26 53.12 26 53.1252C26 53.1304 26 53.1356 26 53.1408C26 53.1461 26 53.1513 26 53.1565C26 53.1617 26 53.1669 26 53.1722C26 53.1774 26 53.1826 26 53.1878C26 53.1931 26 53.1983 26 53.2035C26 53.2087 26 53.214 26 53.2192C26 53.2244 26 53.2296 26 53.2349C26 53.2401 26 53.2453 26 53.2506C26 53.2558 26 53.261 26 53.2663C26 53.2715 26 53.2767 26 53.2819C26 53.2872 26 53.2924 26 53.2976C26 53.3029 26 53.3081 26 53.3133C26 53.3186 26 53.3238 26 53.3291C26 53.3343 26 53.3395 26 53.3448C26 53.35 26 53.3552 26 53.3605C26 53.3657 26 53.3709 26 53.3762C26 53.3814 26 53.3867 26 53.3919C26 53.3971 26 53.4024 26 53.4076C26 53.4129 26 53.4181 26 53.4234C26 53.4286 26 53.4338 26 53.4391C26 53.4443 26 53.4496 26 53.4548C26 53.4601 26 53.4653 26 53.4706C26 53.4758 26 53.481 26 53.4863C26 53.4915 26 53.4968 26 53.502C26 53.5073 26 53.5125 26 53.5178C26 53.523 26 53.5283 26 53.5335C26 53.5388 26 53.544 26 53.5493C26 53.5545 26 53.5598 26 53.565C26 53.5703 26 53.5756 26 53.5808C26 53.5861 26 53.5913 26 53.5966C26 53.6018 26 53.6071 26 53.6123C26 53.6176 26 53.6229 26 53.6281C26 53.6334 26 53.6386 26 53.6439C26 53.6491 26 53.6544 26 53.6597C26 53.6649 26 53.6702 26 53.6754C26 53.6807 26 53.686 26 53.6912C26 53.6965 26 53.7018 26 53.707C26 53.7123 26 53.7175 26 53.7228C26 53.7281 26 53.7333 26 53.7386C26 53.7439 26 53.7491 26 53.7544C26 53.7597 26 53.7649 26 53.7702C26 53.7755 26 53.7808 26 53.786C26 53.7913 26 53.7966 26 53.8018C26 53.8071 26 53.8124 26 53.8176C26 53.8229 26 53.8282 26 53.8335C26 53.8387 26 53.844 26 53.8493C26 53.8545 26 53.8598 26 53.8651C26 53.8704 26 53.8757 26 53.8809C26 53.8862 26 53.8915 26 53.8968C26 53.902 26 53.9073 26 53.9126C26 53.9179 26 53.9231 26 53.9284C26 53.9337 26 53.939 26 53.9443C26 53.9495 26 53.9548 26 53.9601C26 53.9654 26 53.9707 26 53.976C26 53.9812 26 53.9865 26 53.9918C26 53.9971 26 54.0024 26 54.0077C26 54.0129 26 54.0182 26 54.0235C26 54.0288 26 54.0341 26 54.0394C26 54.0447 26 54.05 26 54.0552C26 54.0605 26 54.0658 26 54.0711C26 54.0764 26 54.0817 26 54.087C26 54.0923 26 54.0976 26 54.1029C26 54.1081 26 54.1134 26 54.1187C26 54.124 26 54.1293 26 54.1346C26 54.1399 26 54.1452 26 54.1505C26 54.1558 26 54.1611 26 54.1664C26 54.1717 26 54.177 26 54.1823C26 54.1876 26 54.1929 26 54.1982C26 54.2035 26 54.2088 26 54.2141C26 54.2194 26 54.2247 26 54.23C26 54.2353 26 54.2406 26 54.2459C26 54.2512 26 54.2565 26 54.2618C26 54.2671 26 54.2724 26 54.2777C26 54.283 26 54.2883 26 54.2936C26 54.2989 26 54.3042 26 54.3095C26 54.3148 26 54.3201 26 54.3254C26 54.3307 26 54.336 26 54.3414C26 54.3467 26 54.352 26 54.3573C26 54.3626 26 54.3679 26 54.3732C26 54.3785 26 54.3838 26 54.3891C26 54.3945 26 54.3998 26 54.4051C26 54.4104 26 54.4157 26 54.421C26 54.4263 26 54.4316 26 54.437C26 54.4423 26 54.4476 26 54.4529C26 54.4582 26 54.4635 26 54.4689C26 54.4742 26 54.4795 26 54.4848C26 54.4901 26 54.4954 26 54.5008C26 54.5061 26 54.5114 26 54.5167C26 54.522 26 54.5274 26 54.5327C26 54.538 26 54.5433 26 54.5486C26 54.554 26 54.5593 26 54.5646C26 54.5699 26 54.5753 26 54.5806C26 54.5859 26 54.5912 26 54.5966C26 54.6019 26 54.6072 26 54.6125C26 54.6179 26 54.6232 26 54.6285C26 54.6338 26 54.6392 26 54.6445C26 54.6498 26 54.6552 26 54.6605C26 54.6658 26 54.6711 26 54.6765C26 54.6818 26 54.6871 26 54.6925C26 54.6978 26 54.7031 26 54.7085C26 54.7138 26 54.7191 26 54.7245C26 54.7298 26 54.7351 26 54.7405C26 54.7458 26 54.7511 26 54.7565C26 54.7618 26 54.7671 26 54.7725C26 54.7778 26 54.7832 26 54.7885C26 54.7938 26 54.7992 26 54.8045C26 54.8098 26 54.8152 26 54.8205C26 54.8259 26 54.8312 26 54.8365C26 54.8419 26 54.8472 26 54.8526C26 54.8579 26 54.8633 26 54.8686C26 54.8739 26 54.8793 26 54.8846C26 54.89 26 54.8953 26 54.9007C26 54.906 26 54.9114 26 54.9167C26 54.922 26 54.9274 26 54.9327C26 54.9381 26 54.9434 26 54.9488C26 54.9541 26 54.9595 26 54.9648H28ZM38.5714 36.6917H54V34.6917H38.5714V36.6917ZM64.5714 47.2611C64.5714 47.2657 64.5714 47.2704 64.5714 47.275C64.5714 47.2796 64.5714 47.2842 64.5714 47.2888C64.5714 47.2934 64.5714 47.298 64.5714 47.3026C64.5714 47.3073 64.5714 47.3119 64.5714 47.3165C64.5714 47.3211 64.5714 47.3257 64.5714 47.3303C64.5714 47.335 64.5714 47.3396 64.5714 47.3442C64.5714 47.3488 64.5714 47.3534 64.5714 47.3581C64.5714 47.3627 64.5714 47.3673 64.5714 47.3719C64.5714 47.3765 64.5714 47.3812 64.5714 47.3858C64.5714 47.3904 64.5714 47.395 64.5714 47.3997C64.5714 47.4043 64.5714 47.4089 64.5714 47.4136C64.5714 47.4182 64.5714 47.4228 64.5714 47.4274C64.5714 47.4321 64.5714 47.4367 64.5714 47.4413C64.5714 47.446 64.5714 47.4506 64.5714 47.4552C64.5714 47.4599 64.5714 47.4645 64.5714 47.4691C64.5714 47.4738 64.5714 47.4784 64.5714 47.4831C64.5714 47.4877 64.5714 47.4923 64.5714 47.497C64.5714 47.5016 64.5714 47.5063 64.5714 47.5109C64.5714 47.5155 64.5714 47.5202 64.5714 47.5248C64.5714 47.5295 64.5714 47.5341 64.5714 47.5388C64.5714 47.5434 64.5714 47.548 64.5714 47.5527C64.5714 47.5573 64.5714 47.562 64.5714 47.5666C64.5714 47.5713 64.5714 47.5759 64.5714 47.5806C64.5714 47.5852 64.5714 47.5899 64.5714 47.5945C64.5714 47.5992 64.5714 47.6039 64.5714 47.6085C64.5714 47.6132 64.5714 47.6178 64.5714 47.6225C64.5714 47.6271 64.5714 47.6318 64.5714 47.6364C64.5714 47.6411 64.5714 47.6458 64.5714 47.6504C64.5714 47.6551 64.5714 47.6597 64.5714 47.6644C64.5714 47.6691 64.5714 47.6737 64.5714 47.6784C64.5714 47.6831 64.5714 47.6877 64.5714 47.6924C64.5714 47.6971 64.5714 47.7017 64.5714 47.7064C64.5714 47.7111 64.5714 47.7157 64.5714 47.7204C64.5714 47.7251 64.5714 47.7297 64.5714 47.7344C64.5714 47.7391 64.5714 47.7438 64.5714 47.7484C64.5714 47.7531 64.5714 47.7578 64.5714 47.7624C64.5714 47.7671 64.5714 47.7718 64.5714 47.7765C64.5714 47.7812 64.5714 47.7858 64.5714 47.7905C64.5714 47.7952 64.5714 47.7999 64.5714 47.8045C64.5714 47.8092 64.5714 47.8139 64.5714 47.8186C64.5714 47.8233 64.5714 47.828 64.5714 47.8326C64.5714 47.8373 64.5714 47.842 64.5714 47.8467C64.5714 47.8514 64.5714 47.8561 64.5714 47.8608C64.5714 47.8654 64.5714 47.8701 64.5714 47.8748C64.5714 47.8795 64.5714 47.8842 64.5714 47.8889C64.5714 47.8936 64.5714 47.8983 64.5714 47.903C64.5714 47.9077 64.5714 47.9123 64.5714 47.917C64.5714 47.9217 64.5714 47.9264 64.5714 47.9311C64.5714 47.9358 64.5714 47.9405 64.5714 47.9452C64.5714 47.9499 64.5714 47.9546 64.5714 47.9593C64.5714 47.964 64.5714 47.9687 64.5714 47.9734C64.5714 47.9781 64.5714 47.9828 64.5714 47.9875C64.5714 47.9922 64.5714 47.9969 64.5714 48.0016C64.5714 48.0064 64.5714 48.0111 64.5714 48.0158C64.5714 48.0205 64.5714 48.0252 64.5714 48.0299C64.5714 48.0346 64.5714 48.0393 64.5714 48.044C64.5714 48.0487 64.5714 48.0534 64.5714 48.0582C64.5714 48.0629 64.5714 48.0676 64.5714 48.0723C64.5714 48.077 64.5714 48.0817 64.5714 48.0864C64.5714 48.0912 64.5714 48.0959 64.5714 48.1006C64.5714 48.1053 64.5714 48.11 64.5714 48.1147C64.5714 48.1195 64.5714 48.1242 64.5714 48.1289C64.5714 48.1336 64.5714 48.1384 64.5714 48.1431C64.5714 48.1478 64.5714 48.1525 64.5714 48.1572C64.5714 48.162 64.5714 48.1667 64.5714 48.1714C64.5714 48.1762 64.5714 48.1809 64.5714 48.1856C64.5714 48.1903 64.5714 48.1951 64.5714 48.1998C64.5714 48.2045 64.5714 48.2093 64.5714 48.214C64.5714 48.2187 64.5714 48.2235 64.5714 48.2282C64.5714 48.2329 64.5714 48.2377 64.5714 48.2424C64.5714 48.2471 64.5714 48.2519 64.5714 48.2566C64.5714 48.2613 64.5714 48.2661 64.5714 48.2708C64.5714 48.2756 64.5714 48.2803 64.5714 48.285C64.5714 48.2898 64.5714 48.2945 64.5714 48.2993C64.5714 48.304 64.5714 48.3088 64.5714 48.3135C64.5714 48.3182 64.5714 48.323 64.5714 48.3277C64.5714 48.3325 64.5714 48.3372 64.5714 48.342C64.5714 48.3467 64.5714 48.3515 64.5714 48.3562C64.5714 48.361 64.5714 48.3657 64.5714 48.3705C64.5714 48.3752 64.5714 48.38 64.5714 48.3847C64.5714 48.3895 64.5714 48.3942 64.5714 48.399C64.5714 48.4037 64.5714 48.4085 64.5714 48.4133C64.5714 48.418 64.5714 48.4228 64.5714 48.4275C64.5714 48.4323 64.5714 48.437 64.5714 48.4418C64.5714 48.4466 64.5714 48.4513 64.5714 48.4561C64.5714 48.4608 64.5714 48.4656 64.5714 48.4704C64.5714 48.4751 64.5714 48.4799 64.5714 48.4847C64.5714 48.4894 64.5714 48.4942 64.5714 48.499C64.5714 48.5037 64.5714 48.5085 64.5714 48.5133C64.5714 48.518 64.5714 48.5228 64.5714 48.5276C64.5714 48.5323 64.5714 48.5371 64.5714 48.5419C64.5714 48.5467 64.5714 48.5514 64.5714 48.5562C64.5714 48.561 64.5714 48.5658 64.5714 48.5705C64.5714 48.5753 64.5714 48.5801 64.5714 48.5849C64.5714 48.5896 64.5714 48.5944 64.5714 48.5992C64.5714 48.604 64.5714 48.6088 64.5714 48.6135C64.5714 48.6183 64.5714 48.6231 64.5714 48.6279C64.5714 48.6327 64.5714 48.6375 64.5714 48.6422C64.5714 48.647 64.5714 48.6518 64.5714 48.6566C64.5714 48.6614 64.5714 48.6662 64.5714 48.671C64.5714 48.6757 64.5714 48.6805 64.5714 48.6853C64.5714 48.6901 64.5714 48.6949 64.5714 48.6997C64.5714 48.7045 64.5714 48.7093 64.5714 48.7141C64.5714 48.7189 64.5714 48.7236 64.5714 48.7284C64.5714 48.7332 64.5714 48.738 64.5714 48.7428C64.5714 48.7476 64.5714 48.7524 64.5714 48.7572C64.5714 48.762 64.5714 48.7668 64.5714 48.7716C64.5714 48.7764 64.5714 48.7812 64.5714 48.786C64.5714 48.7908 64.5714 48.7956 64.5714 48.8004C64.5714 48.8052 64.5714 48.81 64.5714 48.8148C64.5714 48.8196 64.5714 48.8244 64.5714 48.8293C64.5714 48.8341 64.5714 48.8389 64.5714 48.8437C64.5714 48.8485 64.5714 48.8533 64.5714 48.8581C64.5714 48.8629 64.5714 48.8677 64.5714 48.8725C64.5714 48.8773 64.5714 48.8822 64.5714 48.887C64.5714 48.8918 64.5714 48.8966 64.5714 48.9014C64.5714 48.9062 64.5714 48.911 64.5714 48.9159C64.5714 48.9207 64.5714 48.9255 64.5714 48.9303C64.5714 48.9351 64.5714 48.9399 64.5714 48.9448C64.5714 48.9496 64.5714 48.9544 64.5714 48.9592C64.5714 48.964 64.5714 48.9689 64.5714 48.9737C64.5714 48.9785 64.5714 48.9833 64.5714 48.9882C64.5714 48.993 64.5714 48.9978 64.5714 49.0026C64.5714 49.0075 64.5714 49.0123 64.5714 49.0171C64.5714 49.022 64.5714 49.0268 64.5714 49.0316C64.5714 49.0364 64.5714 49.0413 64.5714 49.0461C64.5714 49.0509 64.5714 49.0558 64.5714 49.0606C64.5714 49.0654 64.5714 49.0703 64.5714 49.0751C64.5714 49.0799 64.5714 49.0848 64.5714 49.0896C64.5714 49.0944 64.5714 49.0993 64.5714 49.1041C64.5714 49.109 64.5714 49.1138 64.5714 49.1186C64.5714 49.1235 64.5714 49.1283 64.5714 49.1332C64.5714 49.138 64.5714 49.1428 64.5714 49.1477C64.5714 49.1525 64.5714 49.1574 64.5714 49.1622C64.5714 49.1671 64.5714 49.1719 64.5714 49.1768C64.5714 49.1816 64.5714 49.1864 64.5714 49.1913C64.5714 49.1961 64.5714 49.201 64.5714 49.2058C64.5714 49.2107 64.5714 49.2155 64.5714 49.2204C64.5714 49.2252 64.5714 49.2301 64.5714 49.235C64.5714 49.2398 64.5714 49.2447 64.5714 49.2495C64.5714 49.2544 64.5714 49.2592 64.5714 49.2641C64.5714 49.2689 64.5714 49.2738 64.5714 49.2787C64.5714 49.2835 64.5714 49.2884 64.5714 49.2932C64.5714 49.2981 64.5714 49.3029 64.5714 49.3078C64.5714 49.3127 64.5714 49.3175 64.5714 49.3224C64.5714 49.3273 64.5714 49.3321 64.5714 49.337C64.5714 49.3419 64.5714 49.3467 64.5714 49.3516C64.5714 49.3564 64.5714 49.3613 64.5714 49.3662C64.5714 49.371 64.5714 49.3759 64.5714 49.3808C64.5714 49.3857 64.5714 49.3905 64.5714 49.3954C64.5714 49.4003 64.5714 49.4051 64.5714 49.41C64.5714 49.4149 64.5714 49.4198 64.5714 49.4246C64.5714 49.4295 64.5714 49.4344 64.5714 49.4393C64.5714 49.4441 64.5714 49.449 64.5714 49.4539C64.5714 49.4588 64.5714 49.4636 64.5714 49.4685C64.5714 49.4734 64.5714 49.4783 64.5714 49.4832C64.5714 49.488 64.5714 49.4929 64.5714 49.4978C64.5714 49.5027 64.5714 49.5076 64.5714 49.5125C64.5714 49.5173 64.5714 49.5222 64.5714 49.5271C64.5714 49.532 64.5714 49.5369 64.5714 49.5418C64.5714 49.5467 64.5714 49.5515 64.5714 49.5564C64.5714 49.5613 64.5714 49.5662 64.5714 49.5711C64.5714 49.576 64.5714 49.5809 64.5714 49.5858C64.5714 49.5907 64.5714 49.5956 64.5714 49.6005C64.5714 49.6053 64.5714 49.6102 64.5714 49.6151C64.5714 49.62 64.5714 49.6249 64.5714 49.6298C64.5714 49.6347 64.5714 49.6396 64.5714 49.6445C64.5714 49.6494 64.5714 49.6543 64.5714 49.6592C64.5714 49.6641 64.5714 49.669 64.5714 49.6739C64.5714 49.6788 64.5714 49.6837 64.5714 49.6886C64.5714 49.6935 64.5714 49.6984 64.5714 49.7033C64.5714 49.7082 64.5714 49.7131 64.5714 49.7181C64.5714 49.723 64.5714 49.7279 64.5714 49.7328C64.5714 49.7377 64.5714 49.7426 64.5714 49.7475C64.5714 49.7524 64.5714 49.7573 64.5714 49.7622C64.5714 49.7671 64.5714 49.7721 64.5714 49.777C64.5714 49.7819 64.5714 49.7868 64.5714 49.7917C64.5714 49.7966 64.5714 49.8015 64.5714 49.8064C64.5714 49.8114 64.5714 49.8163 64.5714 49.8212C64.5714 49.8261 64.5714 49.831 64.5714 49.836C64.5714 49.8409 64.5714 49.8458 64.5714 49.8507C64.5714 49.8556 64.5714 49.8606 64.5714 49.8655C64.5714 49.8704 64.5714 49.8753 64.5714 49.8802C64.5714 49.8852 64.5714 49.8901 64.5714 49.895C64.5714 49.8999 64.5714 49.9049 64.5714 49.9098C64.5714 49.9147 64.5714 49.9197 64.5714 49.9246C64.5714 49.9295 64.5714 49.9344 64.5714 49.9394C64.5714 49.9443 64.5714 49.9492 64.5714 49.9542C64.5714 49.9591 64.5714 49.964 64.5714 49.969C64.5714 49.9739 64.5714 49.9788 64.5714 49.9838C64.5714 49.9887 64.5714 49.9936 64.5714 49.9986C64.5714 50.0035 64.5714 50.0084 64.5714 50.0134C64.5714 50.0183 64.5714 50.0233 64.5714 50.0282C64.5714 50.0331 64.5714 50.0381 64.5714 50.043C64.5714 50.048 64.5714 50.0529 64.5714 50.0578C64.5714 50.0628 64.5714 50.0677 64.5714 50.0727C64.5714 50.0776 64.5714 50.0826 64.5714 50.0875C64.5714 50.0924 64.5714 50.0974 64.5714 50.1023C64.5714 50.1073 64.5714 50.1122 64.5714 50.1172C64.5714 50.1221 64.5714 50.1271 64.5714 50.132C64.5714 50.137 64.5714 50.1419 64.5714 50.1469C64.5714 50.1518 64.5714 50.1568 64.5714 50.1617C64.5714 50.1667 64.5714 50.1716 64.5714 50.1766C64.5714 50.1816 64.5714 50.1865 64.5714 50.1915C64.5714 50.1964 64.5714 50.2014 64.5714 50.2063C64.5714 50.2113 64.5714 50.2163 64.5714 50.2212C64.5714 50.2262 64.5714 50.2311 64.5714 50.2361C64.5714 50.2411 64.5714 50.246 64.5714 50.251C64.5714 50.2559 64.5714 50.2609 64.5714 50.2659C64.5714 50.2708 64.5714 50.2758 64.5714 50.2808C64.5714 50.2857 64.5714 50.2907 64.5714 50.2957C64.5714 50.3006 64.5714 50.3056 64.5714 50.3106C64.5714 50.3155 64.5714 50.3205 64.5714 50.3255C64.5714 50.3304 64.5714 50.3354 64.5714 50.3404C64.5714 50.3454 64.5714 50.3503 64.5714 50.3553C64.5714 50.3603 64.5714 50.3653 64.5714 50.3702C64.5714 50.3752 64.5714 50.3802 64.5714 50.3852C64.5714 50.3901 64.5714 50.3951 64.5714 50.4001C64.5714 50.4051 64.5714 50.41 64.5714 50.415C64.5714 50.42 64.5714 50.425 64.5714 50.43C64.5714 50.4349 64.5714 50.4399 64.5714 50.4449C64.5714 50.4499 64.5714 50.4549 64.5714 50.4599C64.5714 50.4648 64.5714 50.4698 64.5714 50.4748C64.5714 50.4798 64.5714 50.4848 64.5714 50.4898C64.5714 50.4947 64.5714 50.4997 64.5714 50.5047C64.5714 50.5097 64.5714 50.5147 64.5714 50.5197C64.5714 50.5247 64.5714 50.5297 64.5714 50.5347C64.5714 50.5396 64.5714 50.5446 64.5714 50.5496C64.5714 50.5546 64.5714 50.5596 64.5714 50.5646C64.5714 50.5696 64.5714 50.5746 64.5714 50.5796C64.5714 50.5846 64.5714 50.5896 64.5714 50.5946C64.5714 50.5996 64.5714 50.6046 64.5714 50.6096C64.5714 50.6146 64.5714 50.6196 64.5714 50.6246C64.5714 50.6296 64.5714 50.6346 64.5714 50.6396C64.5714 50.6446 64.5714 50.6496 64.5714 50.6546C64.5714 50.6596 64.5714 50.6646 64.5714 50.6696C64.5714 50.6746 64.5714 50.6796 64.5714 50.6846C64.5714 50.6896 64.5714 50.6946 64.5714 50.6996C64.5714 50.7046 64.5714 50.7097 64.5714 50.7147C64.5714 50.7197 64.5714 50.7247 64.5714 50.7297C64.5714 50.7347 64.5714 50.7397 64.5714 50.7447C64.5714 50.7497 64.5714 50.7547 64.5714 50.7598C64.5714 50.7648 64.5714 50.7698 64.5714 50.7748C64.5714 50.7798 64.5714 50.7848 64.5714 50.7899C64.5714 50.7949 64.5714 50.7999 64.5714 50.8049C64.5714 50.8099 64.5714 50.8149 64.5714 50.82C64.5714 50.825 64.5714 50.83 64.5714 50.835C64.5714 50.84 64.5714 50.8451 64.5714 50.8501C64.5714 50.8551 64.5714 50.8601 64.5714 50.8652C64.5714 50.8702 64.5714 50.8752 64.5714 50.8802C64.5714 50.8853 64.5714 50.8903 64.5714 50.8953C64.5714 50.9003 64.5714 50.9054 64.5714 50.9104C64.5714 50.9154 64.5714 50.9204 64.5714 50.9255C64.5714 50.9305 64.5714 50.9355 64.5714 50.9406C64.5714 50.9456 64.5714 50.9506 64.5714 50.9557C64.5714 50.9607 64.5714 50.9657 64.5714 50.9708C64.5714 50.9758 64.5714 50.9808 64.5714 50.9859C64.5714 50.9909 64.5714 50.9959 64.5714 51.001C64.5714 51.006 64.5714 51.011 64.5714 51.0161C64.5714 51.0211 64.5714 51.0262 64.5714 51.0312C64.5714 51.0362 64.5714 51.0413 64.5714 51.0463C64.5714 51.0514 64.5714 51.0564 64.5714 51.0614C64.5714 51.0665 64.5714 51.0715 64.5714 51.0766C64.5714 51.0816 64.5714 51.0867 64.5714 51.0917C64.5714 51.0967 64.5714 51.1018 64.5714 51.1068C64.5714 51.1119 64.5714 51.1169 64.5714 51.122C64.5714 51.127 64.5714 51.1321 64.5714 51.1371C64.5714 51.1422 64.5714 51.1472 64.5714 51.1523C64.5714 51.1573 64.5714 51.1624 64.5714 51.1674C64.5714 51.1725 64.5714 51.1775 64.5714 51.1826C64.5714 51.1876 64.5714 51.1927 64.5714 51.1978C64.5714 51.2028 64.5714 51.2079 64.5714 51.2129C64.5714 51.218 64.5714 51.223 64.5714 51.2281C64.5714 51.2332 64.5714 51.2382 64.5714 51.2433C64.5714 51.2483 64.5714 51.2534 64.5714 51.2585C64.5714 51.2635 64.5714 51.2686 64.5714 51.2736C64.5714 51.2787 64.5714 51.2838 64.5714 51.2888C64.5714 51.2939 64.5714 51.299 64.5714 51.304C64.5714 51.3091 64.5714 51.3142 64.5714 51.3192C64.5714 51.3243 64.5714 51.3294 64.5714 51.3344C64.5714 51.3395 64.5714 51.3446 64.5714 51.3496C64.5714 51.3547 64.5714 51.3598 64.5714 51.3648C64.5714 51.3699 64.5714 51.375 64.5714 51.3801C64.5714 51.3851 64.5714 51.3902 64.5714 51.3953C64.5714 51.4003 64.5714 51.4054 64.5714 51.4105C64.5714 51.4156 64.5714 51.4206 64.5714 51.4257C64.5714 51.4308 64.5714 51.4359 64.5714 51.441C64.5714 51.446 64.5714 51.4511 64.5714 51.4562C64.5714 51.4613 64.5714 51.4664 64.5714 51.4714C64.5714 51.4765 64.5714 51.4816 64.5714 51.4867C64.5714 51.4918 64.5714 51.4968 64.5714 51.5019C64.5714 51.507 64.5714 51.5121 64.5714 51.5172C64.5714 51.5223 64.5714 51.5273 64.5714 51.5324C64.5714 51.5375 64.5714 51.5426 64.5714 51.5477C64.5714 51.5528 64.5714 51.5579 64.5714 51.563C64.5714 51.568 64.5714 51.5731 64.5714 51.5782C64.5714 51.5833 64.5714 51.5884 64.5714 51.5935C64.5714 51.5986 64.5714 51.6037 64.5714 51.6088C64.5714 51.6139 64.5714 51.619 64.5714 51.6241C64.5714 51.6292 64.5714 51.6342 64.5714 51.6393C64.5714 51.6444 64.5714 51.6495 64.5714 51.6546C64.5714 51.6597 64.5714 51.6648 64.5714 51.6699C64.5714 51.675 64.5714 51.6801 64.5714 51.6852C64.5714 51.6903 64.5714 51.6954 64.5714 51.7005C64.5714 51.7056 64.5714 51.7107 64.5714 51.7158C64.5714 51.7209 64.5714 51.726 64.5714 51.7311C64.5714 51.7362 64.5714 51.7413 64.5714 51.7465C64.5714 51.7516 64.5714 51.7567 64.5714 51.7618C64.5714 51.7669 64.5714 51.772 64.5714 51.7771C64.5714 51.7822 64.5714 51.7873 64.5714 51.7924C64.5714 51.7975 64.5714 51.8026 64.5714 51.8078C64.5714 51.8129 64.5714 51.818 64.5714 51.8231C64.5714 51.8282 64.5714 51.8333 64.5714 51.8384C64.5714 51.8435 64.5714 51.8487 64.5714 51.8538C64.5714 51.8589 64.5714 51.864 64.5714 51.8691C64.5714 51.8742 64.5714 51.8793 64.5714 51.8845C64.5714 51.8896 64.5714 51.8947 64.5714 51.8998C64.5714 51.9049 64.5714 51.9101 64.5714 51.9152C64.5714 51.9203 64.5714 51.9254 64.5714 51.9305C64.5714 51.9357 64.5714 51.9408 64.5714 51.9459C64.5714 51.951 64.5714 51.9562 64.5714 51.9613C64.5714 51.9664 64.5714 51.9715 64.5714 51.9767C64.5714 51.9818 64.5714 51.9869 64.5714 51.992C64.5714 51.9972 64.5714 52.0023 64.5714 52.0074C64.5714 52.0125 64.5714 52.0177 64.5714 52.0228C64.5714 52.0279 64.5714 52.0331 64.5714 52.0382C64.5714 52.0433 64.5714 52.0485 64.5714 52.0536C64.5714 52.0587 64.5714 52.0639 64.5714 52.069C64.5714 52.0741 64.5714 52.0793 64.5714 52.0844C64.5714 52.0895 64.5714 52.0947 64.5714 52.0998C64.5714 52.1049 64.5714 52.1101 64.5714 52.1152C64.5714 52.1203 64.5714 52.1255 64.5714 52.1306C64.5714 52.1358 64.5714 52.1409 64.5714 52.146C64.5714 52.1512 64.5714 52.1563 64.5714 52.1615C64.5714 52.1666 64.5714 52.1717 64.5714 52.1769C64.5714 52.182 64.5714 52.1872 64.5714 52.1923C64.5714 52.1975 64.5714 52.2026 64.5714 52.2078C64.5714 52.2129 64.5714 52.218 64.5714 52.2232C64.5714 52.2283 64.5714 52.2335 64.5714 52.2386C64.5714 52.2438 64.5714 52.2489 64.5714 52.2541C64.5714 52.2592 64.5714 52.2644 64.5714 52.2695C64.5714 52.2747 64.5714 52.2798 64.5714 52.285C64.5714 52.2901 64.5714 52.2953 64.5714 52.3004C64.5714 52.3056 64.5714 52.3107 64.5714 52.3159C64.5714 52.3211 64.5714 52.3262 64.5714 52.3314C64.5714 52.3365 64.5714 52.3417 64.5714 52.3468C64.5714 52.352 64.5714 52.3572 64.5714 52.3623C64.5714 52.3675 64.5714 52.3726 64.5714 52.3778C64.5714 52.3829 64.5714 52.3881 64.5714 52.3933C64.5714 52.3984 64.5714 52.4036 64.5714 52.4088C64.5714 52.4139 64.5714 52.4191 64.5714 52.4242C64.5714 52.4294 64.5714 52.4346 64.5714 52.4397C64.5714 52.4449 64.5714 52.4501 64.5714 52.4552C64.5714 52.4604 64.5714 52.4656 64.5714 52.4707C64.5714 52.4759 64.5714 52.4811 64.5714 52.4862C64.5714 52.4914 64.5714 52.4966 64.5714 52.5018C64.5714 52.5069 64.5714 52.5121 64.5714 52.5173C64.5714 52.5224 64.5714 52.5276 64.5714 52.5328C64.5714 52.5379 64.5714 52.5431 64.5714 52.5483C64.5714 52.5535 64.5714 52.5586 64.5714 52.5638C64.5714 52.569 64.5714 52.5742 64.5714 52.5793C64.5714 52.5845 64.5714 52.5897 64.5714 52.5949C64.5714 52.6001 64.5714 52.6052 64.5714 52.6104C64.5714 52.6156 64.5714 52.6208 64.5714 52.626C64.5714 52.6311 64.5714 52.6363 64.5714 52.6415C64.5714 52.6467 64.5714 52.6519 64.5714 52.657C64.5714 52.6622 64.5714 52.6674 64.5714 52.6726C64.5714 52.6778 64.5714 52.683 64.5714 52.6881C64.5714 52.6933 64.5714 52.6985 64.5714 52.7037C64.5714 52.7089 64.5714 52.7141 64.5714 52.7193C64.5714 52.7245 64.5714 52.7296 64.5714 52.7348C64.5714 52.74 64.5714 52.7452 64.5714 52.7504C64.5714 52.7556 64.5714 52.7608 64.5714 52.766C64.5714 52.7712 64.5714 52.7764 64.5714 52.7815C64.5714 52.7867 64.5714 52.7919 64.5714 52.7971C64.5714 52.8023 64.5714 52.8075 64.5714 52.8127C64.5714 52.8179 64.5714 52.8231 64.5714 52.8283C64.5714 52.8335 64.5714 52.8387 64.5714 52.8439C64.5714 52.8491 64.5714 52.8543 64.5714 52.8595C64.5714 52.8647 64.5714 52.8699 64.5714 52.8751C64.5714 52.8803 64.5714 52.8855 64.5714 52.8907C64.5714 52.8959 64.5714 52.9011 64.5714 52.9063C64.5714 52.9115 64.5714 52.9167 64.5714 52.9219C64.5714 52.9271 64.5714 52.9323 64.5714 52.9375C64.5714 52.9427 64.5714 52.9479 64.5714 52.9531C64.5714 52.9583 64.5714 52.9636 64.5714 52.9688C64.5714 52.974 64.5714 52.9792 64.5714 52.9844C64.5714 52.9896 64.5714 52.9948 64.5714 53C64.5714 53.0052 64.5714 53.0104 64.5714 53.0156C64.5714 53.0209 64.5714 53.0261 64.5714 53.0313C64.5714 53.0365 64.5714 53.0417 64.5714 53.0469C64.5714 53.0521 64.5714 53.0573 64.5714 53.0626C64.5714 53.0678 64.5714 53.073 64.5714 53.0782C64.5714 53.0834 64.5714 53.0886 64.5714 53.0939C64.5714 53.0991 64.5714 53.1043 64.5714 53.1095C64.5714 53.1147 64.5714 53.12 64.5714 53.1252C64.5714 53.1304 64.5714 53.1356 64.5714 53.1408C64.5714 53.1461 64.5714 53.1513 64.5714 53.1565C64.5714 53.1617 64.5714 53.1669 64.5714 53.1722C64.5714 53.1774 64.5714 53.1826 64.5714 53.1878C64.5714 53.1931 64.5714 53.1983 64.5714 53.2035C64.5714 53.2087 64.5714 53.214 64.5714 53.2192C64.5714 53.2244 64.5714 53.2296 64.5714 53.2349C64.5714 53.2401 64.5714 53.2453 64.5714 53.2506C64.5714 53.2558 64.5714 53.261 64.5714 53.2663C64.5714 53.2715 64.5714 53.2767 64.5714 53.2819C64.5714 53.2872 64.5714 53.2924 64.5714 53.2976C64.5714 53.3029 64.5714 53.3081 64.5714 53.3133C64.5714 53.3186 64.5714 53.3238 64.5714 53.3291C64.5714 53.3343 64.5714 53.3395 64.5714 53.3448C64.5714 53.35 64.5714 53.3552 64.5714 53.3605C64.5714 53.3657 64.5714 53.3709 64.5714 53.3762C64.5714 53.3814 64.5714 53.3867 64.5714 53.3919C64.5714 53.3971 64.5714 53.4024 64.5714 53.4076C64.5714 53.4129 64.5714 53.4181 64.5714 53.4234C64.5714 53.4286 64.5714 53.4338 64.5714 53.4391C64.5714 53.4443 64.5714 53.4496 64.5714 53.4548C64.5714 53.4601 64.5714 53.4653 64.5714 53.4706C64.5714 53.4758 64.5714 53.481 64.5714 53.4863C64.5714 53.4915 64.5714 53.4968 64.5714 53.502C64.5714 53.5073 64.5714 53.5125 64.5714 53.5178C64.5714 53.523 64.5714 53.5283 64.5714 53.5335C64.5714 53.5388 64.5714 53.544 64.5714 53.5493C64.5714 53.5545 64.5714 53.5598 64.5714 53.565C64.5714 53.5703 64.5714 53.5756 64.5714 53.5808C64.5714 53.5861 64.5714 53.5913 64.5714 53.5966C64.5714 53.6018 64.5714 53.6071 64.5714 53.6123C64.5714 53.6176 64.5714 53.6229 64.5714 53.6281C64.5714 53.6334 64.5714 53.6386 64.5714 53.6439C64.5714 53.6491 64.5714 53.6544 64.5714 53.6597C64.5714 53.6649 64.5714 53.6702 64.5714 53.6754C64.5714 53.6807 64.5714 53.686 64.5714 53.6912C64.5714 53.6965 64.5714 53.7018 64.5714 53.707C64.5714 53.7123 64.5714 53.7175 64.5714 53.7228C64.5714 53.7281 64.5714 53.7333 64.5714 53.7386C64.5714 53.7439 64.5714 53.7491 64.5714 53.7544C64.5714 53.7597 64.5714 53.7649 64.5714 53.7702C64.5714 53.7755 64.5714 53.7808 64.5714 53.786C64.5714 53.7913 64.5714 53.7966 64.5714 53.8018C64.5714 53.8071 64.5714 53.8124 64.5714 53.8176C64.5714 53.8229 64.5714 53.8282 64.5714 53.8335C64.5714 53.8387 64.5714 53.844 64.5714 53.8493C64.5714 53.8545 64.5714 53.8598 64.5714 53.8651C64.5714 53.8704 64.5714 53.8757 64.5714 53.8809C64.5714 53.8862 64.5714 53.8915 64.5714 53.8968C64.5714 53.902 64.5714 53.9073 64.5714 53.9126C64.5714 53.9179 64.5714 53.9231 64.5714 53.9284C64.5714 53.9337 64.5714 53.939 64.5714 53.9443C64.5714 53.9495 64.5714 53.9548 64.5714 53.9601C64.5714 53.9654 64.5714 53.9707 64.5714 53.976C64.5714 53.9812 64.5714 53.9865 64.5714 53.9918C64.5714 53.9971 64.5714 54.0024 64.5714 54.0077C64.5714 54.0129 64.5714 54.0182 64.5714 54.0235C64.5714 54.0288 64.5714 54.0341 64.5714 54.0394C64.5714 54.0447 64.5714 54.05 64.5714 54.0552C64.5714 54.0605 64.5714 54.0658 64.5714 54.0711C64.5714 54.0764 64.5714 54.0817 64.5714 54.087C64.5714 54.0923 64.5714 54.0976 64.5714 54.1029C64.5714 54.1081 64.5714 54.1134 64.5714 54.1187C64.5714 54.124 64.5714 54.1293 64.5714 54.1346C64.5714 54.1399 64.5714 54.1452 64.5714 54.1505C64.5714 54.1558 64.5714 54.1611 64.5714 54.1664C64.5714 54.1717 64.5714 54.177 64.5714 54.1823C64.5714 54.1876 64.5714 54.1929 64.5714 54.1982C64.5714 54.2035 64.5714 54.2088 64.5714 54.2141C64.5714 54.2194 64.5714 54.2247 64.5714 54.23C64.5714 54.2353 64.5714 54.2406 64.5714 54.2459C64.5714 54.2512 64.5714 54.2565 64.5714 54.2618C64.5714 54.2671 64.5714 54.2724 64.5714 54.2777C64.5714 54.283 64.5714 54.2883 64.5714 54.2936C64.5714 54.2989 64.5714 54.3042 64.5714 54.3095C64.5714 54.3148 64.5714 54.3201 64.5714 54.3254C64.5714 54.3307 64.5714 54.336 64.5714 54.3414C64.5714 54.3467 64.5714 54.352 64.5714 54.3573C64.5714 54.3626 64.5714 54.3679 64.5714 54.3732C64.5714 54.3785 64.5714 54.3838 64.5714 54.3891C64.5714 54.3945 64.5714 54.3998 64.5714 54.4051C64.5714 54.4104 64.5714 54.4157 64.5714 54.421C64.5714 54.4263 64.5714 54.4316 64.5714 54.437C64.5714 54.4423 64.5714 54.4476 64.5714 54.4529C64.5714 54.4582 64.5714 54.4635 64.5714 54.4689C64.5714 54.4742 64.5714 54.4795 64.5714 54.4848C64.5714 54.4901 64.5714 54.4954 64.5714 54.5008C64.5714 54.5061 64.5714 54.5114 64.5714 54.5167C64.5714 54.522 64.5714 54.5274 64.5714 54.5327C64.5714 54.538 64.5714 54.5433 64.5714 54.5486C64.5714 54.554 64.5714 54.5593 64.5714 54.5646C64.5714 54.5699 64.5714 54.5753 64.5714 54.5806C64.5714 54.5859 64.5714 54.5912 64.5714 54.5966C64.5714 54.6019 64.5714 54.6072 64.5714 54.6125C64.5714 54.6179 64.5714 54.6232 64.5714 54.6285C64.5714 54.6338 64.5714 54.6392 64.5714 54.6445C64.5714 54.6498 64.5714 54.6552 64.5714 54.6605C64.5714 54.6658 64.5714 54.6711 64.5714 54.6765C64.5714 54.6818 64.5714 54.6871 64.5714 54.6925C64.5714 54.6978 64.5714 54.7031 64.5714 54.7085C64.5714 54.7138 64.5714 54.7191 64.5714 54.7245C64.5714 54.7298 64.5714 54.7351 64.5714 54.7405C64.5714 54.7458 64.5714 54.7511 64.5714 54.7565C64.5714 54.7618 64.5714 54.7671 64.5714 54.7725C64.5714 54.7778 64.5714 54.7832 64.5714 54.7885C64.5714 54.7938 64.5714 54.7992 64.5714 54.8045C64.5714 54.8098 64.5714 54.8152 64.5714 54.8205C64.5714 54.8259 64.5714 54.8312 64.5714 54.8365C64.5714 54.8419 64.5714 54.8472 64.5714 54.8526C64.5714 54.8579 64.5714 54.8633 64.5714 54.8686C64.5714 54.8739 64.5714 54.8793 64.5714 54.8846C64.5714 54.89 64.5714 54.8953 64.5714 54.9007C64.5714 54.906 64.5714 54.9114 64.5714 54.9167C64.5714 54.922 64.5714 54.9274 64.5714 54.9327C64.5714 54.9381 64.5714 54.9434 64.5714 54.9488C64.5714 54.9541 64.5714 54.9595 64.5714 54.9648H66.5714C66.5714 54.9595 66.5714 54.9541 66.5714 54.9488C66.5714 54.9434 66.5714 54.9381 66.5714 54.9327C66.5714 54.9274 66.5714 54.922 66.5714 54.9167C66.5714 54.9114 66.5714 54.906 66.5714 54.9007C66.5714 54.8953 66.5714 54.89 66.5714 54.8846C66.5714 54.8793 66.5714 54.8739 66.5714 54.8686C66.5714 54.8633 66.5714 54.8579 66.5714 54.8526C66.5714 54.8472 66.5714 54.8419 66.5714 54.8365C66.5714 54.8312 66.5714 54.8259 66.5714 54.8205C66.5714 54.8152 66.5714 54.8098 66.5714 54.8045C66.5714 54.7992 66.5714 54.7938 66.5714 54.7885C66.5714 54.7832 66.5714 54.7778 66.5714 54.7725C66.5714 54.7671 66.5714 54.7618 66.5714 54.7565C66.5714 54.7511 66.5714 54.7458 66.5714 54.7405C66.5714 54.7351 66.5714 54.7298 66.5714 54.7245C66.5714 54.7191 66.5714 54.7138 66.5714 54.7085C66.5714 54.7031 66.5714 54.6978 66.5714 54.6925C66.5714 54.6871 66.5714 54.6818 66.5714 54.6765C66.5714 54.6711 66.5714 54.6658 66.5714 54.6605C66.5714 54.6552 66.5714 54.6498 66.5714 54.6445C66.5714 54.6392 66.5714 54.6338 66.5714 54.6285C66.5714 54.6232 66.5714 54.6179 66.5714 54.6125C66.5714 54.6072 66.5714 54.6019 66.5714 54.5966C66.5714 54.5912 66.5714 54.5859 66.5714 54.5806C66.5714 54.5753 66.5714 54.5699 66.5714 54.5646C66.5714 54.5593 66.5714 54.554 66.5714 54.5486C66.5714 54.5433 66.5714 54.538 66.5714 54.5327C66.5714 54.5274 66.5714 54.522 66.5714 54.5167C66.5714 54.5114 66.5714 54.5061 66.5714 54.5008C66.5714 54.4954 66.5714 54.4901 66.5714 54.4848C66.5714 54.4795 66.5714 54.4742 66.5714 54.4689C66.5714 54.4635 66.5714 54.4582 66.5714 54.4529C66.5714 54.4476 66.5714 54.4423 66.5714 54.437C66.5714 54.4316 66.5714 54.4263 66.5714 54.421C66.5714 54.4157 66.5714 54.4104 66.5714 54.4051C66.5714 54.3998 66.5714 54.3945 66.5714 54.3891C66.5714 54.3838 66.5714 54.3785 66.5714 54.3732C66.5714 54.3679 66.5714 54.3626 66.5714 54.3573C66.5714 54.352 66.5714 54.3467 66.5714 54.3414C66.5714 54.336 66.5714 54.3307 66.5714 54.3254C66.5714 54.3201 66.5714 54.3148 66.5714 54.3095C66.5714 54.3042 66.5714 54.2989 66.5714 54.2936C66.5714 54.2883 66.5714 54.283 66.5714 54.2777C66.5714 54.2724 66.5714 54.2671 66.5714 54.2618C66.5714 54.2565 66.5714 54.2512 66.5714 54.2459C66.5714 54.2406 66.5714 54.2353 66.5714 54.23C66.5714 54.2247 66.5714 54.2194 66.5714 54.2141C66.5714 54.2088 66.5714 54.2035 66.5714 54.1982C66.5714 54.1929 66.5714 54.1876 66.5714 54.1823C66.5714 54.177 66.5714 54.1717 66.5714 54.1664C66.5714 54.1611 66.5714 54.1558 66.5714 54.1505C66.5714 54.1452 66.5714 54.1399 66.5714 54.1346C66.5714 54.1293 66.5714 54.124 66.5714 54.1187C66.5714 54.1134 66.5714 54.1081 66.5714 54.1029C66.5714 54.0976 66.5714 54.0923 66.5714 54.087C66.5714 54.0817 66.5714 54.0764 66.5714 54.0711C66.5714 54.0658 66.5714 54.0605 66.5714 54.0552C66.5714 54.05 66.5714 54.0447 66.5714 54.0394C66.5714 54.0341 66.5714 54.0288 66.5714 54.0235C66.5714 54.0182 66.5714 54.0129 66.5714 54.0077C66.5714 54.0024 66.5714 53.9971 66.5714 53.9918C66.5714 53.9865 66.5714 53.9812 66.5714 53.976C66.5714 53.9707 66.5714 53.9654 66.5714 53.9601C66.5714 53.9548 66.5714 53.9495 66.5714 53.9443C66.5714 53.939 66.5714 53.9337 66.5714 53.9284C66.5714 53.9231 66.5714 53.9179 66.5714 53.9126C66.5714 53.9073 66.5714 53.902 66.5714 53.8968C66.5714 53.8915 66.5714 53.8862 66.5714 53.8809C66.5714 53.8757 66.5714 53.8704 66.5714 53.8651C66.5714 53.8598 66.5714 53.8545 66.5714 53.8493C66.5714 53.844 66.5714 53.8387 66.5714 53.8335C66.5714 53.8282 66.5714 53.8229 66.5714 53.8176C66.5714 53.8124 66.5714 53.8071 66.5714 53.8018C66.5714 53.7966 66.5714 53.7913 66.5714 53.786C66.5714 53.7808 66.5714 53.7755 66.5714 53.7702C66.5714 53.7649 66.5714 53.7597 66.5714 53.7544C66.5714 53.7491 66.5714 53.7439 66.5714 53.7386C66.5714 53.7333 66.5714 53.7281 66.5714 53.7228C66.5714 53.7175 66.5714 53.7123 66.5714 53.707C66.5714 53.7018 66.5714 53.6965 66.5714 53.6912C66.5714 53.686 66.5714 53.6807 66.5714 53.6754C66.5714 53.6702 66.5714 53.6649 66.5714 53.6597C66.5714 53.6544 66.5714 53.6491 66.5714 53.6439C66.5714 53.6386 66.5714 53.6334 66.5714 53.6281C66.5714 53.6229 66.5714 53.6176 66.5714 53.6123C66.5714 53.6071 66.5714 53.6018 66.5714 53.5966C66.5714 53.5913 66.5714 53.5861 66.5714 53.5808C66.5714 53.5756 66.5714 53.5703 66.5714 53.565C66.5714 53.5598 66.5714 53.5545 66.5714 53.5493C66.5714 53.544 66.5714 53.5388 66.5714 53.5335C66.5714 53.5283 66.5714 53.523 66.5714 53.5178C66.5714 53.5125 66.5714 53.5073 66.5714 53.502C66.5714 53.4968 66.5714 53.4915 66.5714 53.4863C66.5714 53.481 66.5714 53.4758 66.5714 53.4706C66.5714 53.4653 66.5714 53.4601 66.5714 53.4548C66.5714 53.4496 66.5714 53.4443 66.5714 53.4391C66.5714 53.4338 66.5714 53.4286 66.5714 53.4234C66.5714 53.4181 66.5714 53.4129 66.5714 53.4076C66.5714 53.4024 66.5714 53.3971 66.5714 53.3919C66.5714 53.3867 66.5714 53.3814 66.5714 53.3762C66.5714 53.3709 66.5714 53.3657 66.5714 53.3605C66.5714 53.3552 66.5714 53.35 66.5714 53.3448C66.5714 53.3395 66.5714 53.3343 66.5714 53.3291C66.5714 53.3238 66.5714 53.3186 66.5714 53.3133C66.5714 53.3081 66.5714 53.3029 66.5714 53.2976C66.5714 53.2924 66.5714 53.2872 66.5714 53.2819C66.5714 53.2767 66.5714 53.2715 66.5714 53.2663C66.5714 53.261 66.5714 53.2558 66.5714 53.2506C66.5714 53.2453 66.5714 53.2401 66.5714 53.2349C66.5714 53.2296 66.5714 53.2244 66.5714 53.2192C66.5714 53.214 66.5714 53.2087 66.5714 53.2035C66.5714 53.1983 66.5714 53.1931 66.5714 53.1878C66.5714 53.1826 66.5714 53.1774 66.5714 53.1722C66.5714 53.1669 66.5714 53.1617 66.5714 53.1565C66.5714 53.1513 66.5714 53.1461 66.5714 53.1408C66.5714 53.1356 66.5714 53.1304 66.5714 53.1252C66.5714 53.12 66.5714 53.1147 66.5714 53.1095C66.5714 53.1043 66.5714 53.0991 66.5714 53.0939C66.5714 53.0886 66.5714 53.0834 66.5714 53.0782C66.5714 53.073 66.5714 53.0678 66.5714 53.0626C66.5714 53.0573 66.5714 53.0521 66.5714 53.0469C66.5714 53.0417 66.5714 53.0365 66.5714 53.0313C66.5714 53.0261 66.5714 53.0209 66.5714 53.0156C66.5714 53.0104 66.5714 53.0052 66.5714 53C66.5714 52.9948 66.5714 52.9896 66.5714 52.9844C66.5714 52.9792 66.5714 52.974 66.5714 52.9688C66.5714 52.9636 66.5714 52.9583 66.5714 52.9531C66.5714 52.9479 66.5714 52.9427 66.5714 52.9375C66.5714 52.9323 66.5714 52.9271 66.5714 52.9219C66.5714 52.9167 66.5714 52.9115 66.5714 52.9063C66.5714 52.9011 66.5714 52.8959 66.5714 52.8907C66.5714 52.8855 66.5714 52.8803 66.5714 52.8751C66.5714 52.8699 66.5714 52.8647 66.5714 52.8595C66.5714 52.8543 66.5714 52.8491 66.5714 52.8439C66.5714 52.8387 66.5714 52.8335 66.5714 52.8283C66.5714 52.8231 66.5714 52.8179 66.5714 52.8127C66.5714 52.8075 66.5714 52.8023 66.5714 52.7971C66.5714 52.7919 66.5714 52.7867 66.5714 52.7815C66.5714 52.7764 66.5714 52.7712 66.5714 52.766C66.5714 52.7608 66.5714 52.7556 66.5714 52.7504C66.5714 52.7452 66.5714 52.74 66.5714 52.7348C66.5714 52.7296 66.5714 52.7245 66.5714 52.7193C66.5714 52.7141 66.5714 52.7089 66.5714 52.7037C66.5714 52.6985 66.5714 52.6933 66.5714 52.6881C66.5714 52.683 66.5714 52.6778 66.5714 52.6726C66.5714 52.6674 66.5714 52.6622 66.5714 52.657C66.5714 52.6519 66.5714 52.6467 66.5714 52.6415C66.5714 52.6363 66.5714 52.6311 66.5714 52.626C66.5714 52.6208 66.5714 52.6156 66.5714 52.6104C66.5714 52.6052 66.5714 52.6001 66.5714 52.5949C66.5714 52.5897 66.5714 52.5845 66.5714 52.5793C66.5714 52.5742 66.5714 52.569 66.5714 52.5638C66.5714 52.5586 66.5714 52.5535 66.5714 52.5483C66.5714 52.5431 66.5714 52.5379 66.5714 52.5328C66.5714 52.5276 66.5714 52.5224 66.5714 52.5173C66.5714 52.5121 66.5714 52.5069 66.5714 52.5018C66.5714 52.4966 66.5714 52.4914 66.5714 52.4862C66.5714 52.4811 66.5714 52.4759 66.5714 52.4707C66.5714 52.4656 66.5714 52.4604 66.5714 52.4552C66.5714 52.4501 66.5714 52.4449 66.5714 52.4397C66.5714 52.4346 66.5714 52.4294 66.5714 52.4242C66.5714 52.4191 66.5714 52.4139 66.5714 52.4088C66.5714 52.4036 66.5714 52.3984 66.5714 52.3933C66.5714 52.3881 66.5714 52.3829 66.5714 52.3778C66.5714 52.3726 66.5714 52.3675 66.5714 52.3623C66.5714 52.3572 66.5714 52.352 66.5714 52.3468C66.5714 52.3417 66.5714 52.3365 66.5714 52.3314C66.5714 52.3262 66.5714 52.3211 66.5714 52.3159C66.5714 52.3107 66.5714 52.3056 66.5714 52.3004C66.5714 52.2953 66.5714 52.2901 66.5714 52.285C66.5714 52.2798 66.5714 52.2747 66.5714 52.2695C66.5714 52.2644 66.5714 52.2592 66.5714 52.2541C66.5714 52.2489 66.5714 52.2438 66.5714 52.2386C66.5714 52.2335 66.5714 52.2283 66.5714 52.2232C66.5714 52.218 66.5714 52.2129 66.5714 52.2078C66.5714 52.2026 66.5714 52.1975 66.5714 52.1923C66.5714 52.1872 66.5714 52.182 66.5714 52.1769C66.5714 52.1717 66.5714 52.1666 66.5714 52.1615C66.5714 52.1563 66.5714 52.1512 66.5714 52.146C66.5714 52.1409 66.5714 52.1358 66.5714 52.1306C66.5714 52.1255 66.5714 52.1203 66.5714 52.1152C66.5714 52.1101 66.5714 52.1049 66.5714 52.0998C66.5714 52.0947 66.5714 52.0895 66.5714 52.0844C66.5714 52.0793 66.5714 52.0741 66.5714 52.069C66.5714 52.0639 66.5714 52.0587 66.5714 52.0536C66.5714 52.0485 66.5714 52.0433 66.5714 52.0382C66.5714 52.0331 66.5714 52.0279 66.5714 52.0228C66.5714 52.0177 66.5714 52.0125 66.5714 52.0074C66.5714 52.0023 66.5714 51.9972 66.5714 51.992C66.5714 51.9869 66.5714 51.9818 66.5714 51.9767C66.5714 51.9715 66.5714 51.9664 66.5714 51.9613C66.5714 51.9562 66.5714 51.951 66.5714 51.9459C66.5714 51.9408 66.5714 51.9357 66.5714 51.9305C66.5714 51.9254 66.5714 51.9203 66.5714 51.9152C66.5714 51.9101 66.5714 51.9049 66.5714 51.8998C66.5714 51.8947 66.5714 51.8896 66.5714 51.8845C66.5714 51.8793 66.5714 51.8742 66.5714 51.8691C66.5714 51.864 66.5714 51.8589 66.5714 51.8538C66.5714 51.8487 66.5714 51.8435 66.5714 51.8384C66.5714 51.8333 66.5714 51.8282 66.5714 51.8231C66.5714 51.818 66.5714 51.8129 66.5714 51.8078C66.5714 51.8026 66.5714 51.7975 66.5714 51.7924C66.5714 51.7873 66.5714 51.7822 66.5714 51.7771C66.5714 51.772 66.5714 51.7669 66.5714 51.7618C66.5714 51.7567 66.5714 51.7516 66.5714 51.7465C66.5714 51.7413 66.5714 51.7362 66.5714 51.7311C66.5714 51.726 66.5714 51.7209 66.5714 51.7158C66.5714 51.7107 66.5714 51.7056 66.5714 51.7005C66.5714 51.6954 66.5714 51.6903 66.5714 51.6852C66.5714 51.6801 66.5714 51.675 66.5714 51.6699C66.5714 51.6648 66.5714 51.6597 66.5714 51.6546C66.5714 51.6495 66.5714 51.6444 66.5714 51.6393C66.5714 51.6342 66.5714 51.6292 66.5714 51.6241C66.5714 51.619 66.5714 51.6139 66.5714 51.6088C66.5714 51.6037 66.5714 51.5986 66.5714 51.5935C66.5714 51.5884 66.5714 51.5833 66.5714 51.5782C66.5714 51.5731 66.5714 51.568 66.5714 51.563C66.5714 51.5579 66.5714 51.5528 66.5714 51.5477C66.5714 51.5426 66.5714 51.5375 66.5714 51.5324C66.5714 51.5273 66.5714 51.5223 66.5714 51.5172C66.5714 51.5121 66.5714 51.507 66.5714 51.5019C66.5714 51.4968 66.5714 51.4918 66.5714 51.4867C66.5714 51.4816 66.5714 51.4765 66.5714 51.4714C66.5714 51.4664 66.5714 51.4613 66.5714 51.4562C66.5714 51.4511 66.5714 51.446 66.5714 51.441C66.5714 51.4359 66.5714 51.4308 66.5714 51.4257C66.5714 51.4206 66.5714 51.4156 66.5714 51.4105C66.5714 51.4054 66.5714 51.4003 66.5714 51.3953C66.5714 51.3902 66.5714 51.3851 66.5714 51.3801C66.5714 51.375 66.5714 51.3699 66.5714 51.3648C66.5714 51.3598 66.5714 51.3547 66.5714 51.3496C66.5714 51.3446 66.5714 51.3395 66.5714 51.3344C66.5714 51.3294 66.5714 51.3243 66.5714 51.3192C66.5714 51.3142 66.5714 51.3091 66.5714 51.304C66.5714 51.299 66.5714 51.2939 66.5714 51.2888C66.5714 51.2838 66.5714 51.2787 66.5714 51.2736C66.5714 51.2686 66.5714 51.2635 66.5714 51.2585C66.5714 51.2534 66.5714 51.2483 66.5714 51.2433C66.5714 51.2382 66.5714 51.2332 66.5714 51.2281C66.5714 51.223 66.5714 51.218 66.5714 51.2129C66.5714 51.2079 66.5714 51.2028 66.5714 51.1978C66.5714 51.1927 66.5714 51.1876 66.5714 51.1826C66.5714 51.1775 66.5714 51.1725 66.5714 51.1674C66.5714 51.1624 66.5714 51.1573 66.5714 51.1523C66.5714 51.1472 66.5714 51.1422 66.5714 51.1371C66.5714 51.1321 66.5714 51.127 66.5714 51.122C66.5714 51.1169 66.5714 51.1119 66.5714 51.1068C66.5714 51.1018 66.5714 51.0967 66.5714 51.0917C66.5714 51.0867 66.5714 51.0816 66.5714 51.0766C66.5714 51.0715 66.5714 51.0665 66.5714 51.0614C66.5714 51.0564 66.5714 51.0514 66.5714 51.0463C66.5714 51.0413 66.5714 51.0362 66.5714 51.0312C66.5714 51.0262 66.5714 51.0211 66.5714 51.0161C66.5714 51.011 66.5714 51.006 66.5714 51.001C66.5714 50.9959 66.5714 50.9909 66.5714 50.9859C66.5714 50.9808 66.5714 50.9758 66.5714 50.9708C66.5714 50.9657 66.5714 50.9607 66.5714 50.9557C66.5714 50.9506 66.5714 50.9456 66.5714 50.9406C66.5714 50.9355 66.5714 50.9305 66.5714 50.9255C66.5714 50.9204 66.5714 50.9154 66.5714 50.9104C66.5714 50.9054 66.5714 50.9003 66.5714 50.8953C66.5714 50.8903 66.5714 50.8853 66.5714 50.8802C66.5714 50.8752 66.5714 50.8702 66.5714 50.8652C66.5714 50.8601 66.5714 50.8551 66.5714 50.8501C66.5714 50.8451 66.5714 50.84 66.5714 50.835C66.5714 50.83 66.5714 50.825 66.5714 50.82C66.5714 50.8149 66.5714 50.8099 66.5714 50.8049C66.5714 50.7999 66.5714 50.7949 66.5714 50.7899C66.5714 50.7848 66.5714 50.7798 66.5714 50.7748C66.5714 50.7698 66.5714 50.7648 66.5714 50.7598C66.5714 50.7547 66.5714 50.7497 66.5714 50.7447C66.5714 50.7397 66.5714 50.7347 66.5714 50.7297C66.5714 50.7247 66.5714 50.7197 66.5714 50.7147C66.5714 50.7097 66.5714 50.7046 66.5714 50.6996C66.5714 50.6946 66.5714 50.6896 66.5714 50.6846C66.5714 50.6796 66.5714 50.6746 66.5714 50.6696C66.5714 50.6646 66.5714 50.6596 66.5714 50.6546C66.5714 50.6496 66.5714 50.6446 66.5714 50.6396C66.5714 50.6346 66.5714 50.6296 66.5714 50.6246C66.5714 50.6196 66.5714 50.6146 66.5714 50.6096C66.5714 50.6046 66.5714 50.5996 66.5714 50.5946C66.5714 50.5896 66.5714 50.5846 66.5714 50.5796C66.5714 50.5746 66.5714 50.5696 66.5714 50.5646C66.5714 50.5596 66.5714 50.5546 66.5714 50.5496C66.5714 50.5446 66.5714 50.5396 66.5714 50.5347C66.5714 50.5297 66.5714 50.5247 66.5714 50.5197C66.5714 50.5147 66.5714 50.5097 66.5714 50.5047C66.5714 50.4997 66.5714 50.4947 66.5714 50.4898C66.5714 50.4848 66.5714 50.4798 66.5714 50.4748C66.5714 50.4698 66.5714 50.4648 66.5714 50.4599C66.5714 50.4549 66.5714 50.4499 66.5714 50.4449C66.5714 50.4399 66.5714 50.4349 66.5714 50.43C66.5714 50.425 66.5714 50.42 66.5714 50.415C66.5714 50.41 66.5714 50.4051 66.5714 50.4001C66.5714 50.3951 66.5714 50.3901 66.5714 50.3852C66.5714 50.3802 66.5714 50.3752 66.5714 50.3702C66.5714 50.3653 66.5714 50.3603 66.5714 50.3553C66.5714 50.3503 66.5714 50.3454 66.5714 50.3404C66.5714 50.3354 66.5714 50.3304 66.5714 50.3255C66.5714 50.3205 66.5714 50.3155 66.5714 50.3106C66.5714 50.3056 66.5714 50.3006 66.5714 50.2957C66.5714 50.2907 66.5714 50.2857 66.5714 50.2808C66.5714 50.2758 66.5714 50.2708 66.5714 50.2659C66.5714 50.2609 66.5714 50.2559 66.5714 50.251C66.5714 50.246 66.5714 50.2411 66.5714 50.2361C66.5714 50.2311 66.5714 50.2262 66.5714 50.2212C66.5714 50.2163 66.5714 50.2113 66.5714 50.2063C66.5714 50.2014 66.5714 50.1964 66.5714 50.1915C66.5714 50.1865 66.5714 50.1816 66.5714 50.1766C66.5714 50.1716 66.5714 50.1667 66.5714 50.1617C66.5714 50.1568 66.5714 50.1518 66.5714 50.1469C66.5714 50.1419 66.5714 50.137 66.5714 50.132C66.5714 50.1271 66.5714 50.1221 66.5714 50.1172C66.5714 50.1122 66.5714 50.1073 66.5714 50.1023C66.5714 50.0974 66.5714 50.0924 66.5714 50.0875C66.5714 50.0826 66.5714 50.0776 66.5714 50.0727C66.5714 50.0677 66.5714 50.0628 66.5714 50.0578C66.5714 50.0529 66.5714 50.048 66.5714 50.043C66.5714 50.0381 66.5714 50.0331 66.5714 50.0282C66.5714 50.0233 66.5714 50.0183 66.5714 50.0134C66.5714 50.0084 66.5714 50.0035 66.5714 49.9986C66.5714 49.9936 66.5714 49.9887 66.5714 49.9838C66.5714 49.9788 66.5714 49.9739 66.5714 49.969C66.5714 49.964 66.5714 49.9591 66.5714 49.9542C66.5714 49.9492 66.5714 49.9443 66.5714 49.9394C66.5714 49.9344 66.5714 49.9295 66.5714 49.9246C66.5714 49.9197 66.5714 49.9147 66.5714 49.9098C66.5714 49.9049 66.5714 49.8999 66.5714 49.895C66.5714 49.8901 66.5714 49.8852 66.5714 49.8802C66.5714 49.8753 66.5714 49.8704 66.5714 49.8655C66.5714 49.8606 66.5714 49.8556 66.5714 49.8507C66.5714 49.8458 66.5714 49.8409 66.5714 49.836C66.5714 49.831 66.5714 49.8261 66.5714 49.8212C66.5714 49.8163 66.5714 49.8114 66.5714 49.8064C66.5714 49.8015 66.5714 49.7966 66.5714 49.7917C66.5714 49.7868 66.5714 49.7819 66.5714 49.777C66.5714 49.7721 66.5714 49.7671 66.5714 49.7622C66.5714 49.7573 66.5714 49.7524 66.5714 49.7475C66.5714 49.7426 66.5714 49.7377 66.5714 49.7328C66.5714 49.7279 66.5714 49.723 66.5714 49.7181C66.5714 49.7131 66.5714 49.7082 66.5714 49.7033C66.5714 49.6984 66.5714 49.6935 66.5714 49.6886C66.5714 49.6837 66.5714 49.6788 66.5714 49.6739C66.5714 49.669 66.5714 49.6641 66.5714 49.6592C66.5714 49.6543 66.5714 49.6494 66.5714 49.6445C66.5714 49.6396 66.5714 49.6347 66.5714 49.6298C66.5714 49.6249 66.5714 49.62 66.5714 49.6151C66.5714 49.6102 66.5714 49.6053 66.5714 49.6005C66.5714 49.5956 66.5714 49.5907 66.5714 49.5858C66.5714 49.5809 66.5714 49.576 66.5714 49.5711C66.5714 49.5662 66.5714 49.5613 66.5714 49.5564C66.5714 49.5515 66.5714 49.5467 66.5714 49.5418C66.5714 49.5369 66.5714 49.532 66.5714 49.5271C66.5714 49.5222 66.5714 49.5173 66.5714 49.5125C66.5714 49.5076 66.5714 49.5027 66.5714 49.4978C66.5714 49.4929 66.5714 49.488 66.5714 49.4832C66.5714 49.4783 66.5714 49.4734 66.5714 49.4685C66.5714 49.4636 66.5714 49.4588 66.5714 49.4539C66.5714 49.449 66.5714 49.4441 66.5714 49.4393C66.5714 49.4344 66.5714 49.4295 66.5714 49.4246C66.5714 49.4198 66.5714 49.4149 66.5714 49.41C66.5714 49.4051 66.5714 49.4003 66.5714 49.3954C66.5714 49.3905 66.5714 49.3857 66.5714 49.3808C66.5714 49.3759 66.5714 49.371 66.5714 49.3662C66.5714 49.3613 66.5714 49.3564 66.5714 49.3516C66.5714 49.3467 66.5714 49.3419 66.5714 49.337C66.5714 49.3321 66.5714 49.3273 66.5714 49.3224C66.5714 49.3175 66.5714 49.3127 66.5714 49.3078C66.5714 49.3029 66.5714 49.2981 66.5714 49.2932C66.5714 49.2884 66.5714 49.2835 66.5714 49.2787C66.5714 49.2738 66.5714 49.2689 66.5714 49.2641C66.5714 49.2592 66.5714 49.2544 66.5714 49.2495C66.5714 49.2447 66.5714 49.2398 66.5714 49.235C66.5714 49.2301 66.5714 49.2252 66.5714 49.2204C66.5714 49.2155 66.5714 49.2107 66.5714 49.2058C66.5714 49.201 66.5714 49.1961 66.5714 49.1913C66.5714 49.1864 66.5714 49.1816 66.5714 49.1768C66.5714 49.1719 66.5714 49.1671 66.5714 49.1622C66.5714 49.1574 66.5714 49.1525 66.5714 49.1477C66.5714 49.1428 66.5714 49.138 66.5714 49.1332C66.5714 49.1283 66.5714 49.1235 66.5714 49.1186C66.5714 49.1138 66.5714 49.109 66.5714 49.1041C66.5714 49.0993 66.5714 49.0944 66.5714 49.0896C66.5714 49.0848 66.5714 49.0799 66.5714 49.0751C66.5714 49.0703 66.5714 49.0654 66.5714 49.0606C66.5714 49.0558 66.5714 49.0509 66.5714 49.0461C66.5714 49.0413 66.5714 49.0364 66.5714 49.0316C66.5714 49.0268 66.5714 49.022 66.5714 49.0171C66.5714 49.0123 66.5714 49.0075 66.5714 49.0026C66.5714 48.9978 66.5714 48.993 66.5714 48.9882C66.5714 48.9833 66.5714 48.9785 66.5714 48.9737C66.5714 48.9689 66.5714 48.964 66.5714 48.9592C66.5714 48.9544 66.5714 48.9496 66.5714 48.9448C66.5714 48.9399 66.5714 48.9351 66.5714 48.9303C66.5714 48.9255 66.5714 48.9207 66.5714 48.9159C66.5714 48.911 66.5714 48.9062 66.5714 48.9014C66.5714 48.8966 66.5714 48.8918 66.5714 48.887C66.5714 48.8822 66.5714 48.8773 66.5714 48.8725C66.5714 48.8677 66.5714 48.8629 66.5714 48.8581C66.5714 48.8533 66.5714 48.8485 66.5714 48.8437C66.5714 48.8389 66.5714 48.8341 66.5714 48.8293C66.5714 48.8244 66.5714 48.8196 66.5714 48.8148C66.5714 48.81 66.5714 48.8052 66.5714 48.8004C66.5714 48.7956 66.5714 48.7908 66.5714 48.786C66.5714 48.7812 66.5714 48.7764 66.5714 48.7716C66.5714 48.7668 66.5714 48.762 66.5714 48.7572C66.5714 48.7524 66.5714 48.7476 66.5714 48.7428C66.5714 48.738 66.5714 48.7332 66.5714 48.7284C66.5714 48.7236 66.5714 48.7189 66.5714 48.7141C66.5714 48.7093 66.5714 48.7045 66.5714 48.6997C66.5714 48.6949 66.5714 48.6901 66.5714 48.6853C66.5714 48.6805 66.5714 48.6757 66.5714 48.671C66.5714 48.6662 66.5714 48.6614 66.5714 48.6566C66.5714 48.6518 66.5714 48.647 66.5714 48.6422C66.5714 48.6375 66.5714 48.6327 66.5714 48.6279C66.5714 48.6231 66.5714 48.6183 66.5714 48.6135C66.5714 48.6088 66.5714 48.604 66.5714 48.5992C66.5714 48.5944 66.5714 48.5896 66.5714 48.5849C66.5714 48.5801 66.5714 48.5753 66.5714 48.5705C66.5714 48.5658 66.5714 48.561 66.5714 48.5562C66.5714 48.5514 66.5714 48.5467 66.5714 48.5419C66.5714 48.5371 66.5714 48.5323 66.5714 48.5276C66.5714 48.5228 66.5714 48.518 66.5714 48.5133C66.5714 48.5085 66.5714 48.5037 66.5714 48.499C66.5714 48.4942 66.5714 48.4894 66.5714 48.4847C66.5714 48.4799 66.5714 48.4751 66.5714 48.4704C66.5714 48.4656 66.5714 48.4608 66.5714 48.4561C66.5714 48.4513 66.5714 48.4466 66.5714 48.4418C66.5714 48.437 66.5714 48.4323 66.5714 48.4275C66.5714 48.4228 66.5714 48.418 66.5714 48.4133C66.5714 48.4085 66.5714 48.4037 66.5714 48.399C66.5714 48.3942 66.5714 48.3895 66.5714 48.3847C66.5714 48.38 66.5714 48.3752 66.5714 48.3705C66.5714 48.3657 66.5714 48.361 66.5714 48.3562C66.5714 48.3515 66.5714 48.3467 66.5714 48.342C66.5714 48.3372 66.5714 48.3325 66.5714 48.3277C66.5714 48.323 66.5714 48.3182 66.5714 48.3135C66.5714 48.3088 66.5714 48.304 66.5714 48.2993C66.5714 48.2945 66.5714 48.2898 66.5714 48.285C66.5714 48.2803 66.5714 48.2756 66.5714 48.2708C66.5714 48.2661 66.5714 48.2613 66.5714 48.2566C66.5714 48.2519 66.5714 48.2471 66.5714 48.2424C66.5714 48.2377 66.5714 48.2329 66.5714 48.2282C66.5714 48.2235 66.5714 48.2187 66.5714 48.214C66.5714 48.2093 66.5714 48.2045 66.5714 48.1998C66.5714 48.1951 66.5714 48.1903 66.5714 48.1856C66.5714 48.1809 66.5714 48.1762 66.5714 48.1714C66.5714 48.1667 66.5714 48.162 66.5714 48.1572C66.5714 48.1525 66.5714 48.1478 66.5714 48.1431C66.5714 48.1384 66.5714 48.1336 66.5714 48.1289C66.5714 48.1242 66.5714 48.1195 66.5714 48.1147C66.5714 48.11 66.5714 48.1053 66.5714 48.1006C66.5714 48.0959 66.5714 48.0912 66.5714 48.0864C66.5714 48.0817 66.5714 48.077 66.5714 48.0723C66.5714 48.0676 66.5714 48.0629 66.5714 48.0582C66.5714 48.0534 66.5714 48.0487 66.5714 48.044C66.5714 48.0393 66.5714 48.0346 66.5714 48.0299C66.5714 48.0252 66.5714 48.0205 66.5714 48.0158C66.5714 48.0111 66.5714 48.0064 66.5714 48.0016C66.5714 47.9969 66.5714 47.9922 66.5714 47.9875C66.5714 47.9828 66.5714 47.9781 66.5714 47.9734C66.5714 47.9687 66.5714 47.964 66.5714 47.9593C66.5714 47.9546 66.5714 47.9499 66.5714 47.9452C66.5714 47.9405 66.5714 47.9358 66.5714 47.9311C66.5714 47.9264 66.5714 47.9217 66.5714 47.917C66.5714 47.9123 66.5714 47.9077 66.5714 47.903C66.5714 47.8983 66.5714 47.8936 66.5714 47.8889C66.5714 47.8842 66.5714 47.8795 66.5714 47.8748C66.5714 47.8701 66.5714 47.8654 66.5714 47.8608C66.5714 47.8561 66.5714 47.8514 66.5714 47.8467C66.5714 47.842 66.5714 47.8373 66.5714 47.8326C66.5714 47.828 66.5714 47.8233 66.5714 47.8186C66.5714 47.8139 66.5714 47.8092 66.5714 47.8045C66.5714 47.7999 66.5714 47.7952 66.5714 47.7905C66.5714 47.7858 66.5714 47.7812 66.5714 47.7765C66.5714 47.7718 66.5714 47.7671 66.5714 47.7624C66.5714 47.7578 66.5714 47.7531 66.5714 47.7484C66.5714 47.7438 66.5714 47.7391 66.5714 47.7344C66.5714 47.7297 66.5714 47.7251 66.5714 47.7204C66.5714 47.7157 66.5714 47.7111 66.5714 47.7064C66.5714 47.7017 66.5714 47.6971 66.5714 47.6924C66.5714 47.6877 66.5714 47.6831 66.5714 47.6784C66.5714 47.6737 66.5714 47.6691 66.5714 47.6644C66.5714 47.6597 66.5714 47.6551 66.5714 47.6504C66.5714 47.6458 66.5714 47.6411 66.5714 47.6364C66.5714 47.6318 66.5714 47.6271 66.5714 47.6225C66.5714 47.6178 66.5714 47.6132 66.5714 47.6085C66.5714 47.6039 66.5714 47.5992 66.5714 47.5945C66.5714 47.5899 66.5714 47.5852 66.5714 47.5806C66.5714 47.5759 66.5714 47.5713 66.5714 47.5666C66.5714 47.562 66.5714 47.5573 66.5714 47.5527C66.5714 47.548 66.5714 47.5434 66.5714 47.5388C66.5714 47.5341 66.5714 47.5295 66.5714 47.5248C66.5714 47.5202 66.5714 47.5155 66.5714 47.5109C66.5714 47.5063 66.5714 47.5016 66.5714 47.497C66.5714 47.4923 66.5714 47.4877 66.5714 47.4831C66.5714 47.4784 66.5714 47.4738 66.5714 47.4691C66.5714 47.4645 66.5714 47.4599 66.5714 47.4552C66.5714 47.4506 66.5714 47.446 66.5714 47.4413C66.5714 47.4367 66.5714 47.4321 66.5714 47.4274C66.5714 47.4228 66.5714 47.4182 66.5714 47.4136C66.5714 47.4089 66.5714 47.4043 66.5714 47.3997C66.5714 47.395 66.5714 47.3904 66.5714 47.3858C66.5714 47.3812 66.5714 47.3765 66.5714 47.3719C66.5714 47.3673 66.5714 47.3627 66.5714 47.3581C66.5714 47.3534 66.5714 47.3488 66.5714 47.3442C66.5714 47.3396 66.5714 47.335 66.5714 47.3303C66.5714 47.3257 66.5714 47.3211 66.5714 47.3165C66.5714 47.3119 66.5714 47.3073 66.5714 47.3026C66.5714 47.298 66.5714 47.2934 66.5714 47.2888C66.5714 47.2842 66.5714 47.2796 66.5714 47.275C66.5714 47.2704 66.5714 47.2657 66.5714 47.2611H64.5714ZM54 36.6917C59.8387 36.6917 64.5714 41.4229 64.5714 47.2611H66.5714C66.5714 40.3179 60.9428 34.6917 54 34.6917V36.6917ZM28 47.2611C28 41.4229 32.7328 36.6917 38.5714 36.6917V34.6917C31.6286 34.6917 26 40.3179 26 47.2611H28ZM80 49.2143V55H82V49.2143H80ZM81 54H71.3571V56H81V54ZM71.3571 40.5714C76.1305 40.5714 80 44.441 80 49.2143H82C82 43.3364 77.235 38.5714 71.3571 38.5714V40.5714ZM69.4286 30.8571C65.7204 30.8571 62.7143 27.8511 62.7143 24.1429H60.7143C60.7143 28.9556 64.6158 32.8571 69.4286 32.8571V30.8571ZM76.1429 24.1429C76.1429 27.8511 73.1368 30.8571 69.4286 30.8571V32.8571C74.2413 32.8571 78.1429 28.9556 78.1429 24.1429H76.1429ZM69.4286 17.4286C73.1368 17.4286 76.1429 20.4347 76.1429 24.1429H78.1429C78.1429 19.3301 74.2413 15.4286 69.4286 15.4286V17.4286ZM69.4286 15.4286C64.6158 15.4286 60.7143 19.3301 60.7143 24.1429H62.7143C62.7143 20.4347 65.7204 17.4286 69.4286 17.4286V15.4286Z" fill="#0E1B2C"/>
</g>
<defs>
<clipPath id="clip0_116_53">
<rect width="105" height="71" fill="white"/>
</clipPath>
</defs>
</svg>