<svg xmlns="http://www.w3.org/2000/svg" width="103" height="75" viewBox="0 0 103 75" fill="none">
<g clip-path="url(#clip0_116_25)">
<path d="M51.1364 23.375C22.8946 23.375 0 46.2696 0 74.5114H102.273C102.273 46.2696 79.3781 23.375 51.1364 23.375Z" fill="#FDC98D"/>
<path fill-rule="evenodd" clip-rule="evenodd" d="M50.7123 21.4581C53.0181 21.4581 54.8895 19.588 54.8895 17.2838C54.8895 14.9794 53.0181 13.1094 50.7123 13.1094C48.4066 13.1094 46.5352 14.9794 46.5352 17.2838C46.5352 19.588 48.4066 21.4581 50.7123 21.4581Z" stroke="#0E1B2C" stroke-width="1.94805" stroke-linecap="round"/>
<path fill-rule="evenodd" clip-rule="evenodd" d="M63.2434 17.2849C63.2434 27.7208 50.712 35.9306 50.712 35.9306C50.712 35.9306 38.1807 27.7208 38.1807 17.2849C38.1807 10.37 43.7926 4.76172 50.712 4.76172C57.6315 4.76172 63.2434 10.37 63.2434 17.2849Z" stroke="#0E1B2C" stroke-width="1.94805" stroke-linecap="round"/>
<path d="M57.5283 34.2918C59.228 35.8343 60.5835 36.7268 60.5835 36.7268C60.5835 36.7268 70.3237 30.3131 70.3237 22.1599C70.3237 18.7453 68.5811 15.7386 65.9406 13.9883" stroke="#0E1B2C" stroke-width="1.94805" stroke-linecap="round"/>
<path d="M43.0512 34.2918C41.3516 35.8343 39.9961 36.7268 39.9961 36.7268C39.9961 36.7268 30.2559 30.3131 30.2559 22.1599C30.2559 18.7453 31.9985 15.7386 34.639 13.9883" stroke="#0E1B2C" stroke-width="1.94805" stroke-linecap="round"/>
<path d="M75.385 24.0625C79.2489 33.5647 77.3264 44.8689 69.6173 52.5778C59.3471 62.8481 42.6956 62.8481 32.4254 52.5778C24.9782 45.1306 22.9311 34.3282 26.2841 25.0365" stroke="#0E1B2C" stroke-width="1.94805" stroke-linecap="round"/>
</g>
<defs>
<clipPath id="clip0_116_25">
<rect width="102.273" height="75" fill="white"/>
</clipPath>
</defs>
</svg>