<svg width="105" height="77" viewBox="0 0 105 77" fill="none" xmlns="http://www.w3.org/2000/svg">
<path d="M52.5 24C23.5051 24 0 47.5051 0 76.5H105C105 47.5051 81.4949 24 52.5 24Z" fill="#FDC98D"/>
<circle cx="52.5" cy="32.5" r="25.5" stroke="#0E1B2C" stroke-width="2"/>
<path d="M66.2848 18.5763C67.3801 22.5868 68 27.154 68 32C68 42.002 65.3594 50.8165 61.3472 56M41.9471 51.5254C39.4961 46.3845 38 39.5287 38 32C38 21.998 40.6406 13.1835 44.6528 8" stroke="#0E1B2C" stroke-width="2"/>
<path d="M65.4237 45.2848C61.4132 46.3801 56.846 47 52 47C41.998 47 33.1835 44.3594 28 40.3472M32.4746 20.9471C37.6155 18.4961 44.4713 17 52 17C62.002 17 70.8165 19.6406 76 23.6528" stroke="#0E1B2C" stroke-width="2"/>
<circle cx="52.5" cy="6.5" r="5.5" stroke="#0E1B2C" stroke-width="2"/>
<circle cx="52.5" cy="57.5" r="5.5" stroke="#0E1B2C" stroke-width="2"/>
<circle cx="26.5" cy="32.5" r="5.5" stroke="#0E1B2C" stroke-width="2"/>
<circle cx="77.5" cy="32.5" r="5.5" stroke="#0E1B2C" stroke-width="2"/>
</svg>
