<svg xmlns="http://www.w3.org/2000/svg" width="20" height="20" viewBox="0 0 20 20" fill="none">
<path d="M10 1.64286H10.75C10.75 1.35878 10.5895 1.09908 10.3354 0.972037L10 1.64286ZM10 2.92857L10.3354 3.59939C10.5895 3.47235 10.75 3.21265 10.75 2.92857H10ZM8.71429 3.57143L8.37888 2.90061C8.13975 3.02017 7.98235 3.25799 7.96573 3.52483C7.94912 3.79166 8.07581 4.04717 8.29826 4.19547L8.71429 3.57143ZM10.6429 4.85714L10.2268 5.48118C10.35 5.56331 10.4948 5.60714 10.6429 5.60714V4.85714ZM11.2857 4.85714V5.60714C11.6999 5.60714 12.0357 5.27136 12.0357 4.85714H11.2857ZM11.2857 3.57143V2.82143C10.8715 2.82143 10.5357 3.15721 10.5357 3.57143H11.2857ZM13.2143 3.57143H13.9643C13.9643 3.15721 13.6285 2.82143 13.2143 2.82143V3.57143ZM13.2143 4.85714H12.4643C12.4643 5.05606 12.5433 5.24682 12.684 5.38747L13.2143 4.85714ZM13.8571 5.5H14.6071C14.6071 5.30109 14.5281 5.11032 14.3875 4.96967L13.8571 5.5ZM13.8571 6.78571L14.3875 7.31604C14.5281 7.17539 14.6071 6.98463 14.6071 6.78571H13.8571ZM13.2143 7.42857V8.17857C13.4132 8.17857 13.604 8.09955 13.7446 7.9589L13.2143 7.42857ZM11.9286 7.42857L11.5932 8.09939C11.6973 8.15146 11.8121 8.17857 11.9286 8.17857V7.42857ZM9.35714 6.14286L9.69255 5.47204C9.48141 5.36646 9.23288 5.36646 9.02173 5.47204L9.35714 6.14286ZM8.07143 6.78571V7.53571C8.18786 7.53571 8.3027 7.50861 8.40684 7.45653L8.07143 6.78571ZM6.14286 6.78571V6.03571C5.79871 6.03571 5.49872 6.26994 5.41525 6.60381L6.14286 6.78571ZM5.5 9.35714L4.77239 9.17524C4.7085 9.43082 4.78338 9.70119 4.96967 9.88747L5.5 9.35714ZM7.42857 11.2857L6.89824 11.816C6.95524 11.873 7.02106 11.9205 7.09316 11.9565L7.42857 11.2857ZM8.71429 11.9286H9.46429C9.46429 11.6445 9.30378 11.3848 9.0497 11.2578L8.71429 11.9286ZM8.71429 13.8571H7.96429C7.96429 14.0561 8.0433 14.2468 8.18396 14.3875L8.71429 13.8571ZM9.35714 14.5H10.1071C10.1071 14.3011 10.0281 14.1103 9.88747 13.9697L9.35714 14.5ZM9.35714 15.7857H8.60714C8.60714 15.9021 8.63425 16.017 8.68632 16.1211L9.35714 15.7857ZM10 17.0714L9.32918 17.4068C9.45622 17.6609 9.71592 17.8214 10 17.8214V17.0714ZM11.2857 17.0714V17.8214C11.5365 17.8214 11.7707 17.6961 11.9098 17.4875L11.2857 17.0714ZM12.5714 15.1429L13.1955 15.5589C13.2127 15.533 13.2283 15.5061 13.2422 15.4783L12.5714 15.1429ZM13.2143 13.8571L13.8851 14.1926C13.9372 14.0884 13.9643 13.9736 13.9643 13.8571H13.2143ZM13.2143 12.5714L12.6143 12.1214C12.5169 12.2513 12.4643 12.4092 12.4643 12.5714H13.2143ZM15.1429 10L15.7429 10.45C15.9133 10.2227 15.9407 9.91868 15.8137 9.66459L15.1429 10ZM14.5 8.71429V7.96429C14.2401 7.96429 13.9987 8.09888 13.862 8.31999C13.7254 8.5411 13.7129 8.8172 13.8292 9.0497L14.5 8.71429ZM16.4286 8.71429V9.46429C16.8428 9.46429 17.1786 9.1285 17.1786 8.71429H16.4286ZM16.4286 7.42857V6.67857C16.0144 6.67857 15.6786 7.01436 15.6786 7.42857H16.4286ZM10 18.25C5.44365 18.25 1.75 14.5563 1.75 10H0.25C0.25 15.3848 4.61522 19.75 10 19.75V18.25ZM18.25 10C18.25 14.5563 14.5563 18.25 10 18.25V19.75C15.3848 19.75 19.75 15.3848 19.75 10H18.25ZM10 1.75C14.5563 1.75 18.25 5.44365 18.25 10H19.75C19.75 4.61522 15.3848 0.25 10 0.25V1.75ZM10 0.25C4.61522 0.25 0.25 4.61522 0.25 10H1.75C1.75 5.44365 5.44365 1.75 10 1.75V0.25ZM8.37888 1.67082L9.66459 2.31368L10.3354 0.972037L9.0497 0.32918L8.37888 1.67082ZM9.25 1.64286V2.92857H10.75V1.64286H9.25ZM9.66459 2.25775L8.37888 2.90061L9.0497 4.24225L10.3354 3.59939L9.66459 2.25775ZM8.29826 4.19547L10.2268 5.48118L11.0589 4.23311L9.13031 2.94739L8.29826 4.19547ZM10.6429 5.60714H11.2857V4.10714H10.6429V5.60714ZM12.0357 4.85714V3.57143H10.5357V4.85714H12.0357ZM11.2857 4.32143H13.2143V2.82143H11.2857V4.32143ZM12.4643 3.57143V4.85714H13.9643V3.57143H12.4643ZM12.684 5.38747L13.3268 6.03033L14.3875 4.96967L13.7446 4.32681L12.684 5.38747ZM13.1071 5.5V6.78571H14.6071V5.5H13.1071ZM13.3268 6.25538L12.684 6.89824L13.7446 7.9589L14.3875 7.31604L13.3268 6.25538ZM13.2143 6.67857H11.9286V8.17857H13.2143V6.67857ZM12.264 6.75775L9.69255 5.47204L9.02173 6.81368L11.5932 8.09939L12.264 6.75775ZM9.02173 5.47204L7.73602 6.11489L8.40684 7.45653L9.69255 6.81368L9.02173 5.47204ZM8.07143 6.03571H6.14286V7.53571H8.07143V6.03571ZM5.41525 6.60381L4.77239 9.17524L6.22761 9.53904L6.87046 6.96762L5.41525 6.60381ZM4.96967 9.88747L6.89824 11.816L7.9589 10.7554L6.03033 8.82681L4.96967 9.88747ZM7.09316 11.9565L8.37888 12.5994L9.0497 11.2578L7.76398 10.6149L7.09316 11.9565ZM7.96429 11.9286V13.8571H9.46429V11.9286H7.96429ZM8.18396 14.3875L8.82681 15.0303L9.88747 13.9697L9.24462 13.3268L8.18396 14.3875ZM8.60714 14.5V15.7857H10.1071V14.5H8.60714ZM8.68632 16.1211L9.32918 17.4068L10.6708 16.736L10.028 15.4503L8.68632 16.1211ZM10 17.8214H11.2857V16.3214H10V17.8214ZM11.9098 17.4875L13.1955 15.5589L11.9474 14.7268L10.6617 16.6554L11.9098 17.4875ZM13.2422 15.4783L13.8851 14.1926L12.5435 13.5217L11.9006 14.8074L13.2422 15.4783ZM13.9643 13.8571V12.5714H12.4643V13.8571H13.9643ZM13.8143 13.0214L15.7429 10.45L14.5429 9.55L12.6143 12.1214L13.8143 13.0214ZM15.8137 9.66459L15.1708 8.37888L13.8292 9.0497L14.472 10.3354L15.8137 9.66459ZM14.5 9.46429H16.4286V7.96429H14.5V9.46429ZM17.1786 8.71429V7.42857H15.6786V8.71429H17.1786ZM16.4286 8.17857H19V6.67857H16.4286V8.17857Z" fill="#0E1B2C"/>
</svg>