<svg width="37" height="42" viewBox="0 0 37 42" fill="none" xmlns="http://www.w3.org/2000/svg">
<path d="M12.4286 28.1429V23.8571M12.4286 23.8571V9.57143C12.4286 7.99347 13.7078 6.71429 15.2857 6.71429C16.8637 6.71429 18.1429 7.99347 18.1429 9.57143V21H27.7227C30.3217 21 32.4286 23.1069 32.4286 25.7059V28.1429C32.4286 35.2437 26.6722 41 19.5714 41H18.1429C11.831 41 6.71429 35.8833 6.71429 29.5714C6.71429 26.4155 9.27266 23.8571 12.4286 23.8571ZM22.4286 15.2857H28.1429C32.0877 15.2857 35.2857 12.0877 35.2857 8.14286C35.2857 4.19797 32.0877 1 28.1429 1H8.14286C4.19797 1 1 4.19797 1 8.14286C1 12.0877 4.19797 15.2857 8.14286 15.2857" stroke="#FDAF4D" stroke-width="2"/>
</svg>
