<svg width="42" height="42" viewBox="0 0 42 42" fill="none" xmlns="http://www.w3.org/2000/svg">
<path d="M12.4286 21V20C12.1634 20 11.909 20.1054 11.7215 20.2929C11.5339 20.4804 11.4286 20.7348 11.4286 21H12.4286ZM29.5714 21H30.5714C30.5714 20.7348 30.4661 20.4804 30.2785 20.2929C30.091 20.1054 29.8366 20 29.5714 20V21ZM29.5714 20H12.4286V22H29.5714V20ZM21 30.5714C26.3938 30.5714 30.5714 26.3938 30.5714 21H28.5714C28.5714 25.2892 25.2892 28.5714 21 28.5714V30.5714ZM11.4286 21C11.4286 26.3938 15.6062 30.5714 21 30.5714V28.5714C16.7108 28.5714 13.4286 25.2892 13.4286 21H11.4286ZM21 40C10.5066 40 2 31.4934 2 21H0C0 32.598 9.40202 42 21 42V40ZM40 21C40 31.4934 31.4934 40 21 40V42C32.598 42 42 32.598 42 21H40ZM21 2C31.4934 2 40 10.5066 40 21H42C42 9.40202 32.598 0 21 0V2ZM21 0C9.40202 0 0 9.40202 0 21H2C2 10.5066 10.5066 2 21 2V0ZM11 16.2857H13.8571V14.2857H11V16.2857ZM28.1429 16.2857H31V14.2857H28.1429V16.2857Z" fill="#6C48F0"/>
</svg>
