<svg width="70" height="70" viewBox="0 0 70 70" fill="none" xmlns="http://www.w3.org/2000/svg">
<path d="M0 35C0 15.67 15.67 0 35 0C54.33 0 70 15.67 70 35C70 54.33 54.33 70 35 70C15.67 70 0 54.33 0 35Z" fill="#FBBFB6"/>
<path d="M27.4325 33.3859L28.4225 33.5273V33.5273L27.4325 33.3859ZM27.4117 33.5315L26.4218 33.39L26.4218 33.39L27.4117 33.5315ZM41.6019 33.3859L42.5918 33.2445V33.2445L41.6019 33.3859ZM41.6227 33.5315L40.6327 33.6729V33.6729L41.6227 33.5315ZM38.6552 45.8621V46.8621C39.2075 46.8621 39.6552 46.4144 39.6552 45.8621H38.6552ZM30.3793 45.8621H29.3793C29.3793 46.4144 29.827 46.8621 30.3793 46.8621V45.8621ZM28.8389 38.9371L29.6297 38.325L28.8389 38.9371ZM40.1955 38.937L39.4047 38.3249L40.1955 38.937ZM31.4138 51H37.6207V49H31.4138V51ZM26.4426 33.2445L26.4218 33.39L28.4017 33.6729L28.4225 33.5273L26.4426 33.2445ZM34.5172 26.2414C30.4581 26.2414 27.0166 29.2261 26.4426 33.2445L28.4225 33.5273C28.8558 30.4943 31.4534 28.2414 34.5172 28.2414V26.2414ZM42.5918 33.2445C42.0178 29.2261 38.5764 26.2414 34.5172 26.2414V28.2414C37.5811 28.2414 40.1787 30.4943 40.6119 33.5273L42.5918 33.2445ZM42.6126 33.39L42.5918 33.2445L40.6119 33.5273L40.6327 33.6729L42.6126 33.39ZM40.9863 39.5491C42.2836 37.873 42.9407 35.6862 42.6126 33.39L40.6327 33.6729C40.8808 35.4091 40.3863 37.0567 39.4047 38.3249L40.9863 39.5491ZM37.6552 42.5544V45.8621H39.6552V42.5544H37.6552ZM38.6552 44.8621H30.3793V46.8621H38.6552V44.8621ZM31.3793 45.8621V42.5545H29.3793V45.8621H31.3793ZM26.4218 33.39C26.0938 35.6862 26.7508 37.873 28.0481 39.5491L29.6297 38.325C28.6481 37.0568 28.1536 35.4091 28.4017 33.6729L26.4218 33.39ZM31.3793 42.5545C31.3793 40.862 30.4795 39.4229 29.6297 38.325L28.0481 39.5491C28.8423 40.5751 29.3793 41.5611 29.3793 42.5545H31.3793ZM39.4047 38.3249C38.5549 39.4229 37.6552 40.862 37.6552 42.5544H39.6552C39.6552 41.561 40.1922 40.5751 40.9863 39.5491L39.4047 38.3249ZM33.5172 20V24.1379H35.5172V20H33.5172ZM19 36.5172H23.1379V34.5172H19V36.5172ZM45.8966 36.5172H50.0345V34.5172H45.8966V36.5172ZM25.914 27.5688L22.8106 24.4653L21.3963 25.8795L24.4998 28.983L25.914 27.5688ZM44.5347 28.983L47.6381 25.8795L46.2239 24.4653L43.1205 27.5688L44.5347 28.983Z" fill="#0E1B2C"/>
</svg>
