<svg width="70" height="70" viewBox="0 0 70 70" fill="none" xmlns="http://www.w3.org/2000/svg">
<path d="M0 35C0 15.67 15.67 0 35 0C54.33 0 70 15.67 70 35C70 54.33 54.33 70 35 70C15.67 70 0 54.33 0 35Z" fill="#ADCBFF"/>
<path d="M26.2284 30.2767L25.3847 29.7398L25.2284 29.9855V30.2767H26.2284ZM31.829 21.4758L32.6727 22.0126L31.829 21.4758ZM37.3659 24.6107L36.4715 24.1635H36.4715L37.3659 24.6107ZM34.533 30.2767L33.6385 29.8295C33.4835 30.1395 33.5001 30.5076 33.6823 30.8024C33.8645 31.0972 34.1864 31.2767 34.533 31.2767V30.2767ZM49.0659 40.6574L49.8659 41.2574L50.0659 40.9907V40.6574H49.0659ZM44.0832 47.301L44.8832 47.901V47.901L44.0832 47.301ZM36.1556 20.4544L36.6701 19.5969V19.5969L36.1556 20.4544ZM19 29.2386V50H21V29.2386H19ZM27.0721 30.8136L32.6727 22.0126L30.9853 20.9389L25.3847 29.7398L27.0721 30.8136ZM36.4715 24.1635L33.6385 29.8295L35.4274 30.7239L38.2604 25.0579L36.4715 24.1635ZM34.533 31.2767H44.9136V29.2767H34.533V31.2767ZM48.0659 34.429V40.6574H50.0659V34.429H48.0659ZM48.2659 40.0574L43.2832 46.701L44.8832 47.901L49.8659 41.2574L48.2659 40.0574ZM40.7614 47.9619H30.3807V49.9619H40.7614V47.9619ZM27.2284 44.8097V30.2767H25.2284V44.8097H27.2284ZM44.9136 31.2767C46.6546 31.2767 48.0659 32.688 48.0659 34.429H50.0659C50.0659 31.5835 47.7592 29.2767 44.9136 29.2767V31.2767ZM30.3807 47.9619C28.6397 47.9619 27.2284 46.5506 27.2284 44.8097H25.2284C25.2284 47.6552 27.5352 49.9619 30.3807 49.9619V47.9619ZM35.6411 21.3119C36.6204 21.8995 36.9823 23.142 36.4715 24.1635L38.2604 25.0579C39.2385 23.1017 38.5456 20.7222 36.6701 19.5969L35.6411 21.3119ZM43.2832 46.701C42.6879 47.4948 41.7536 47.9619 40.7614 47.9619V49.9619C42.3831 49.9619 43.9102 49.1984 44.8832 47.901L43.2832 46.701ZM32.6727 22.0126C33.3087 21.0131 34.6252 20.7024 35.6411 21.3119L36.6701 19.5969C34.7247 18.4296 32.2034 19.0248 30.9853 20.9389L32.6727 22.0126Z" fill="#0E1B2C"/>
</svg>
