<svg xmlns="http://www.w3.org/2000/svg" width="20" height="20" viewBox="0 0 20 20" fill="none">
<path d="M13.8571 19H13.1071C13.1071 19.3033 13.2899 19.5768 13.5701 19.6929C13.8504 19.809 14.173 19.7448 14.3875 19.5303L13.8571 19ZM13.8571 13.8571V13.1071C13.4429 13.1071 13.1071 13.4429 13.1071 13.8571H13.8571ZM19 13.8571L19.5303 14.3875C19.7448 14.173 19.809 13.8504 19.6929 13.5701C19.5768 13.2899 19.3033 13.1071 19 13.1071V13.8571ZM2.28571 1.75H17.7143V0.25H2.28571V1.75ZM1.75 17.7143V2.28571H0.25V17.7143H1.75ZM18.25 2.28571V13.3246H19.75V2.28571H18.25ZM13.3246 18.25H2.28571V19.75H13.3246V18.25ZM18.0931 13.7034L13.7034 18.0931L14.764 19.1538L19.1538 14.7641L18.0931 13.7034ZM13.3246 19.75C13.8645 19.75 14.3823 19.5355 14.764 19.1538L13.7034 18.0931C13.6029 18.1936 13.4667 18.25 13.3246 18.25V19.75ZM18.25 13.3246C18.25 13.4667 18.1936 13.6029 18.0931 13.7034L19.1538 14.7641C19.5355 14.3823 19.75 13.8645 19.75 13.3246H18.25ZM0.25 17.7143C0.25 18.8386 1.16142 19.75 2.28571 19.75V18.25C1.98985 18.25 1.75 18.0102 1.75 17.7143H0.25ZM17.7143 1.75C18.0102 1.75 18.25 1.98985 18.25 2.28571H19.75C19.75 1.16142 18.8386 0.25 17.7143 0.25V1.75ZM2.28571 0.25C1.16142 0.25 0.25 1.16142 0.25 2.28571H1.75C1.75 1.98985 1.98985 1.75 2.28571 1.75V0.25ZM14.6071 19V13.8571H13.1071V19H14.6071ZM13.8571 14.6071H19V13.1071H13.8571V14.6071ZM18.4697 13.3268L13.3268 18.4697L14.3875 19.5303L19.5303 14.3875L18.4697 13.3268ZM4.21429 5.60714H15.7857V4.10714H4.21429V5.60714Z" fill="#0E1B2C"/>
</svg>