<svg xmlns="http://www.w3.org/2000/svg" width="20" height="20" viewBox="0 0 20 20" fill="none">
<path d="M4.73705 7.16602L4.1043 6.76336L3.98705 6.94762V7.16602H4.73705ZM8.0974 1.88546L8.73015 2.28811V2.28811L8.0974 1.88546ZM11.4196 3.76643L10.7487 3.43102L10.7487 3.43102L11.4196 3.76643ZM9.71977 7.16602L9.04895 6.83061C8.93271 7.0631 8.94513 7.33921 9.08179 7.56032C9.21844 7.78143 9.45984 7.91602 9.71977 7.91602V7.16602ZM18.4395 13.3944L19.0395 13.8444L19.1895 13.6444V13.3944H18.4395ZM15.4499 17.3806L16.0499 17.8306L15.4499 17.3806ZM10.6934 1.27263L11.0792 0.629512V0.629512L10.6934 1.27263ZM0.25 6.54318V19H1.75V6.54318H0.25ZM5.36979 7.56868L8.73015 2.28811L7.46466 1.4828L4.1043 6.76336L5.36979 7.56868ZM10.7487 3.43102L9.04895 6.83061L10.3906 7.50143L12.0904 4.10184L10.7487 3.43102ZM9.71977 7.91602H15.9482V6.41602H9.71977V7.91602ZM17.6895 9.65738V13.3944H19.1895V9.65738H17.6895ZM17.8395 12.9444L14.8499 16.9306L16.0499 17.8306L19.0395 13.8444L17.8395 12.9444ZM13.4568 17.6272H7.22841V19.1272H13.4568V17.6272ZM5.48705 15.8858V7.16602H3.98705V15.8858H5.48705ZM15.9482 7.91602C16.9099 7.91602 17.6895 8.69566 17.6895 9.65738H19.1895C19.1895 7.86723 17.7383 6.41602 15.9482 6.41602V7.91602ZM7.22841 17.6272C6.26668 17.6272 5.48705 16.8475 5.48705 15.8858H3.98705C3.98705 17.676 5.43825 19.1272 7.22841 19.1272V17.6272ZM10.3075 1.91575C10.8279 2.22798 11.0201 2.88822 10.7487 3.43102L12.0904 4.10184C12.7123 2.85799 12.2717 1.34501 11.0792 0.629512L10.3075 1.91575ZM14.8499 16.9306C14.521 17.3691 14.0049 17.6272 13.4568 17.6272V19.1272C14.4771 19.1272 15.4378 18.6468 16.0499 17.8306L14.8499 16.9306ZM8.73015 2.28811C9.06812 1.75701 9.76769 1.59187 10.3075 1.91575L11.0792 0.629512C9.84225 -0.112687 8.23914 0.265758 7.46466 1.4828L8.73015 2.28811Z" fill="#0E1B2C"/>
</svg>