<svg xmlns="http://www.w3.org/2000/svg" width="127" height="88" viewBox="0 0 127 88" fill="none">
<g clip-path="url(#clip0_5_224)">
<g clip-path="url(#clip1_5_224)">
<g clip-path="url(#clip2_5_224)">
<g clip-path="url(#clip3_5_224)">
<g filter="url(#filter0_d_5_224)">
<path d="M74.2557 20.8011C72.375 18.9244 69.3264 18.9244 67.4462 20.8011C65.5661 22.6778 65.5661 25.7205 67.4462 27.5971C69.3264 29.4738 72.375 29.4738 74.2557 27.5971C76.1358 25.7205 76.1358 22.6778 74.2557 20.8011Z" fill="#CED6FF"/>
<path d="M74.2557 20.8011C72.375 18.9244 69.3264 18.9244 67.4462 20.8011C65.5661 22.6778 65.5661 25.7205 67.4462 27.5971C69.3264 29.4738 72.375 29.4738 74.2557 27.5971C76.1358 25.7205 76.1358 22.6778 74.2557 20.8011Z" fill="url(#paint0_linear_5_224)"/>
<path d="M63.0885 31.9466C61.2079 30.0699 58.1592 30.0699 56.2789 31.9466L31.6466 56.5133C29.7662 58.3898 29.7662 61.4327 31.6466 63.3092C33.5269 65.1862 36.5756 65.1862 38.4559 63.3092L63.0885 38.7426C64.9686 36.866 64.9686 33.8233 63.0885 31.9466Z" fill="#CED6FF"/>
<path d="M63.0885 31.9466C61.2079 30.0699 58.1592 30.0699 56.2789 31.9466L31.6466 56.5133C29.7662 58.3898 29.7662 61.4327 31.6466 63.3092C33.5269 65.1862 36.5756 65.1862 38.4559 63.3092L63.0885 38.7426C64.9686 36.866 64.9686 33.8233 63.0885 31.9466Z" fill="url(#paint1_linear_5_224)"/>
<path d="M94.4668 23.9915C92.5866 22.1148 89.5375 22.1148 87.6573 23.9915L63.3734 48.2115C61.493 50.0882 61.493 53.1309 63.3734 55.0074C65.2535 56.8844 68.3022 56.8844 70.1828 55.0074L94.4668 30.7876C96.3469 28.9109 96.3469 25.8682 94.4668 23.9915Z" fill="#CED6FF"/>
<path d="M94.4668 23.9915C92.5866 22.1148 89.5375 22.1148 87.6573 23.9915L63.3734 48.2115C61.493 50.0882 61.493 53.1309 63.3734 55.0074C65.2535 56.8844 68.3022 56.8844 70.1828 55.0074L94.4668 30.7876C96.3469 28.9109 96.3469 25.8682 94.4668 23.9915Z" fill="url(#paint2_linear_5_224)"/>
</g>
</g>
</g>
</g>
</g>
<defs>
<filter id="filter0_d_5_224" x="9.39801" y="0.639065" width="107.317" height="86.9999" filterUnits="userSpaceOnUse" color-interpolation-filters="sRGB">
<feFlood flood-opacity="0" result="BackgroundImageFix"/>
<feColorMatrix in="SourceAlpha" type="matrix" values="0 0 0 0 0 0 0 0 0 0 0 0 0 0 0 0 0 0 127 0" result="hardAlpha"/>
<feOffset dy="2.08383"/>
<feGaussianBlur stdDeviation="10.4192"/>
<feColorMatrix type="matrix" values="0 0 0 0 0 0 0 0 0 0 0 0 0 0 0 0 0 0 0.25 0"/>
<feBlend mode="normal" in2="BackgroundImageFix" result="effect1_dropShadow_5_224"/>
<feBlend mode="normal" in="SourceGraphic" in2="effect1_dropShadow_5_224" result="shape"/>
</filter>
<linearGradient id="paint0_linear_5_224" x1="27.6315" y1="78.7828" x2="87.4578" y2="16.9428" gradientUnits="userSpaceOnUse">
<stop stop-color="#6C48F0"/>
<stop offset="1" stop-color="#226CF5"/>
</linearGradient>
<linearGradient id="paint1_linear_5_224" x1="27.6316" y1="78.7827" x2="87.4579" y2="16.9427" gradientUnits="userSpaceOnUse">
<stop stop-color="#6C48F0"/>
<stop offset="1" stop-color="#226CF5"/>
</linearGradient>
<linearGradient id="paint2_linear_5_224" x1="27.6315" y1="78.7823" x2="87.4578" y2="16.9423" gradientUnits="userSpaceOnUse">
<stop stop-color="#6C48F0"/>
<stop offset="1" stop-color="#226CF5"/>
</linearGradient>
<clipPath id="clip0_5_224">
<rect width="126" height="87" fill="white" transform="translate(0.0566406 0.638672)"/>
</clipPath>
<clipPath id="clip1_5_224">
<rect width="126" height="87" fill="white" transform="translate(0.0566406 0.638672)"/>
</clipPath>
<clipPath id="clip2_5_224">
<rect width="126" height="87" fill="white" transform="translate(0.0566406 0.638672)"/>
</clipPath>
<clipPath id="clip3_5_224">
<rect width="107.317" height="87" fill="white" transform="translate(9.39795 0.638672)"/>
</clipPath>
</defs>
</svg>