<svg xmlns="http://www.w3.org/2000/svg" width="33" height="23" viewBox="0 0 33 23" fill="none">
<path fill-rule="evenodd" clip-rule="evenodd" d="M0.0267126 14.6337C0.023185 14.728 0.0214054 14.8227 0.0214054 14.9179C0.021405 19.0444 3.3666 22.3896 7.4931 22.3896C11.6196 22.3896 14.9647 19.0444 14.9647 14.9179C14.9647 10.7914 11.6196 7.44626 7.4931 7.44626C6.73022 7.44626 5.99405 7.56059 5.30078 7.77305C6.81844 4.45882 11.3774 1.50206 13.5804 0.389648C2.06849 2.65883 -0.25604 10.8361 0.0206883 14.6412L0.0267126 14.6337Z" fill="#226CF5"/>
<path fill-rule="evenodd" clip-rule="evenodd" d="M18.0491 14.6335C18.0456 14.7278 18.0438 14.8227 18.0438 14.9179C18.0438 19.0444 21.389 22.3896 25.5155 22.3896C29.642 22.3896 32.9872 19.0444 32.9872 14.9179C32.9872 10.7914 29.642 7.4462 25.5155 7.4462C24.7526 7.4462 24.0163 7.56055 23.323 7.77305C24.8407 4.45882 29.3997 1.50205 31.6027 0.389648C20.0907 2.65882 17.7662 10.8362 18.0429 14.6412L18.0491 14.6335Z" fill="#226CF5"/>
</svg>