<svg xmlns="http://www.w3.org/2000/svg" width="20" height="20" viewBox="0 0 20 20" fill="none">
<path d="M7.42857 1H2.28571C1.57563 1 1 1.57563 1 2.28571V7.42857C1 8.13865 1.57563 8.71429 2.28571 8.71429H7.42857C8.13865 8.71429 8.71429 8.13865 8.71429 7.42857V2.28571C8.71429 1.57563 8.13865 1 7.42857 1Z" stroke="#0E1B2C" stroke-width="1.5"/>
<path d="M17.7143 1H12.5714C11.8613 1 11.2857 1.57563 11.2857 2.28571V7.42857C11.2857 8.13865 11.8613 8.71429 12.5714 8.71429H17.7143C18.4244 8.71429 19 8.13865 19 7.42857V2.28571C19 1.57563 18.4244 1 17.7143 1Z" stroke="#0E1B2C" stroke-width="1.5"/>
<path d="M17.7143 11.2857H12.5714C11.8613 11.2857 11.2857 11.8613 11.2857 12.5714V17.7143C11.2857 18.4244 11.8613 19 12.5714 19H17.7143C18.4244 19 19 18.4244 19 17.7143V12.5714C19 11.8613 18.4244 11.2857 17.7143 11.2857Z" stroke="#0E1B2C" stroke-width="1.5"/>
<path d="M7.42857 11.2857H2.28571C1.57563 11.2857 1 11.8613 1 12.5714V17.7143C1 18.4244 1.57563 19 2.28571 19H7.42857C8.13865 19 8.71429 18.4244 8.71429 17.7143V12.5714C8.71429 11.8613 8.13865 11.2857 7.42857 11.2857Z" stroke="#0E1B2C" stroke-width="1.5"/>
</svg>