<svg xmlns="http://www.w3.org/2000/svg" width="21" height="26" viewBox="0 0 21 26" fill="none">
<g clip-path="url(#clip0_60_226)">
<g clip-path="url(#clip1_60_226)">
<path d="M8.70809 3.8454C9.17502 2.50206 11.0748 2.50205 11.5418 3.84539L12.8681 7.66105C13.0741 8.25366 13.6271 8.65546 14.2544 8.66824L18.2932 8.75055C19.715 8.77951 20.3021 10.5863 19.1687 11.4455L15.9497 13.8861C15.4498 14.2651 15.2386 14.9152 15.4202 15.5157L16.5899 19.3823C17.0018 20.7435 15.4649 21.8601 14.2975 21.0479L10.9817 18.7406C10.4667 18.3822 9.78314 18.3822 9.26816 18.7406L5.95236 21.0479C4.785 21.8601 3.24803 20.7435 3.65985 19.3823L4.82963 15.5157C5.01129 14.9152 4.80006 14.2651 4.30011 13.8861L1.08107 11.4455C-0.0522323 10.5863 0.534836 8.77951 1.95672 8.75055L5.99547 8.66824C6.62274 8.65546 7.17578 8.25366 7.38176 7.66105L8.70809 3.8454Z" fill="#FDAF4D"/>
</g>
</g>
<defs>
<clipPath id="clip0_60_226">
<rect width="21" height="25" fill="white" transform="translate(0 0.0195312)"/>
</clipPath>
<clipPath id="clip1_60_226">
<rect width="21" height="19.5" fill="white" transform="translate(0 2.76953)"/>
</clipPath>
</defs>
</svg>