<svg xmlns="http://www.w3.org/2000/svg" width="61" height="45" viewBox="0 0 61 45" fill="none">
<g clip-path="url(#clip0_5_27)">
<g filter="url(#filter0_dd_5_27)">
<path d="M30.0568 35.8291C38.341 35.8291 45.0568 29.1134 45.0568 20.8291C45.0568 12.5448 38.341 5.8291 30.0568 5.8291C21.7725 5.8291 15.0568 12.5448 15.0568 20.8291C15.0568 29.1134 21.7725 35.8291 30.0568 35.8291Z" fill="white"/>
</g>
<path d="M29.1122 14.7967C29.4235 13.9011 30.6901 13.9011 31.0014 14.7967L31.8856 17.3405C32.0229 17.7355 32.3916 18.0034 32.8098 18.0119L35.5023 18.0668C36.4502 18.0861 36.8416 19.2906 36.086 19.8635L33.94 21.4905C33.6067 21.7431 33.4659 22.1766 33.587 22.5769L34.3668 25.1546C34.6414 26.0621 33.6168 26.8065 32.8385 26.265L30.628 24.7268C30.2847 24.4879 29.8289 24.4879 29.4856 24.7268L27.2751 26.265C26.4968 26.8065 25.4722 26.0621 25.7468 25.1546L26.5266 22.5769C26.6477 22.1766 26.5069 21.7431 26.1736 21.4905L24.0276 19.8635C23.272 19.2907 23.6634 18.0861 24.6113 18.0668L27.3038 18.0119C27.722 18.0034 28.0907 17.7355 28.228 17.3405L29.1122 14.7967Z" fill="#FDAF4D"/>
</g>
<defs>
<filter id="filter0_dd_5_27" x="0.0567627" y="0.829102" width="60" height="60" filterUnits="userSpaceOnUse" color-interpolation-filters="sRGB">
<feFlood flood-opacity="0" result="BackgroundImageFix"/>
<feColorMatrix in="SourceAlpha" type="matrix" values="0 0 0 0 0 0 0 0 0 0 0 0 0 0 0 0 0 0 127 0" result="hardAlpha"/>
<feOffset dy="10"/>
<feGaussianBlur stdDeviation="7.5"/>
<feColorMatrix type="matrix" values="0 0 0 0 0.770833 0 0 0 0 0.48691 0 0 0 0 0.443229 0 0 0 0.1 0"/>
<feBlend mode="normal" in2="BackgroundImageFix" result="effect1_dropShadow_5_27"/>
<feColorMatrix in="SourceAlpha" type="matrix" values="0 0 0 0 0 0 0 0 0 0 0 0 0 0 0 0 0 0 127 0" result="hardAlpha"/>
<feOffset/>
<feGaussianBlur stdDeviation="2.5"/>
<feColorMatrix type="matrix" values="0 0 0 0 0 0 0 0 0 0 0 0 0 0 0 0 0 0 0.05 0"/>
<feBlend mode="normal" in2="effect1_dropShadow_5_27" result="effect2_dropShadow_5_27"/>
<feBlend mode="normal" in="SourceGraphic" in2="effect2_dropShadow_5_27" result="shape"/>
</filter>
<clipPath id="clip0_5_27">
<rect width="60" height="60" fill="white" transform="translate(0.0567627 0.829102)"/>
</clipPath>
</defs>
</svg>