<svg width="70" height="70" viewBox="0 0 70 70" fill="none" xmlns="http://www.w3.org/2000/svg">
<path d="M0 35C0 15.67 15.67 0 35 0V0C54.33 0 70 15.67 70 35V35C70 54.33 54.33 70 35 70V70C15.67 70 0 54.33 0 35V35Z" fill="#B8AAEE"/>
<path d="M29.3714 37.6143L28.7714 36.8143L27.1714 38.0143L27.7714 38.8143L29.3714 37.6143ZM42.2286 38.8143L42.8286 38.0143L41.2286 36.8143L40.6286 37.6143L42.2286 38.8143ZM35 49C27.268 49 21 42.732 21 35H19C19 43.8366 26.1634 51 35 51V49ZM49 35C49 42.732 42.732 49 35 49V51C43.8366 51 51 43.8366 51 35H49ZM35 21C42.732 21 49 27.268 49 35H51C51 26.1634 43.8366 19 35 19V21ZM35 19C26.1634 19 19 26.1634 19 35H21C21 27.268 27.268 21 35 21V19ZM27.5 31.7143H29.6429V29.7143H27.5V31.7143ZM40.3571 31.7143H42.5V29.7143H40.3571V31.7143ZM40.6286 37.6143C37.8143 41.3667 32.1857 41.3667 29.3714 37.6143L27.7714 38.8143C31.3857 43.6333 38.6143 43.6333 42.2286 38.8143L40.6286 37.6143Z" fill="#0E1B2C"/>
</svg>
