<svg xmlns="http://www.w3.org/2000/svg" width="71" height="21" viewBox="0 0 71 21" fill="none">
<g clip-path="url(#clip0_5_507)">
<g clip-path="url(#clip1_5_507)">
<g clip-path="url(#clip2_5_507)">
<path opacity="0.2" d="M34.1264 3.16827C34.4594 2.32412 35.654 2.32412 35.987 3.16827L37.7258 7.5771C37.8274 7.83482 38.0314 8.03882 38.2892 8.14047L42.698 9.87929C43.5421 10.2122 43.5421 11.4068 42.698 11.7398L38.2892 13.4786C38.0314 13.5802 37.8274 13.7842 37.7258 14.042L35.987 18.4508C35.654 19.2949 34.4594 19.2949 34.1264 18.4508L32.3876 14.042C32.286 13.7842 32.082 13.5802 31.8242 13.4786L27.4154 11.7398C26.5713 11.4068 26.5713 10.2122 27.4154 9.87929L31.8242 8.14047C32.082 8.03882 32.286 7.83482 32.3876 7.5771L34.1264 3.16827Z" fill="#64647A"/>
<path opacity="0.2" d="M61.1264 5.16827C61.4594 4.32412 62.654 4.32412 62.987 5.16827L64.1601 8.14278C64.2617 8.4005 64.4657 8.60451 64.7235 8.70615L67.698 9.87929C68.5421 10.2122 68.5421 11.4068 67.698 11.7398L64.7235 12.9129C64.4657 13.0145 64.2617 13.2185 64.1601 13.4763L62.987 16.4508C62.654 17.2949 61.4594 17.2949 61.1264 16.4508L59.9533 13.4763C59.8517 13.2185 59.6477 13.0145 59.3899 12.9129L56.4154 11.7398C55.5713 11.4068 55.5713 10.2122 56.4154 9.87929L59.3899 8.70615C59.6477 8.60451 59.8517 8.4005 59.9533 8.14278L61.1264 5.16827Z" fill="#64647A"/>
<path opacity="0.2" d="M7.12648 6.16827C7.4594 5.32412 8.65408 5.32412 8.987 6.16827L10.1601 9.14278C10.2617 9.4005 10.4657 9.60451 10.7235 9.70615L13.698 10.8792C14.5421 11.2122 14.5421 12.4068 13.698 12.7398L10.7235 13.9129C10.4657 14.0145 10.2617 14.2185 10.1601 14.4763L8.987 17.4508C8.65408 18.2949 7.4594 18.2949 7.12648 17.4508L5.95334 14.4763C5.8517 14.2185 5.64769 14.0145 5.38997 13.9129L2.41546 12.7398C1.57131 12.4068 1.57131 11.2122 2.41546 10.8792L5.38997 9.70615C5.64769 9.60451 5.8517 9.4005 5.95334 9.14278L7.12648 6.16827Z" fill="#64647A"/>
</g>
</g>
</g>
<defs>
<clipPath id="clip0_5_507">
<rect width="70" height="20" fill="white" transform="translate(0.0567627 0.808594)"/>
</clipPath>
<clipPath id="clip1_5_507">
<rect width="70" height="20" fill="white" transform="translate(0.0567627 0.808594)"/>
</clipPath>
<clipPath id="clip2_5_507">
<rect width="70" height="20" fill="white" transform="translate(0.0567627 0.808594)"/>
</clipPath>
</defs>
</svg>