<svg xmlns="http://www.w3.org/2000/svg" width="20" height="20" viewBox="0 0 20 20" fill="none">
<path d="M19 1L19.6854 1.3046C19.7885 1.0726 19.7672 0.804192 19.6289 0.591315C19.4905 0.378438 19.2539 0.25 19 0.25V1ZM1 1V0.25C0.585786 0.25 0.25 0.585786 0.25 1L1 1ZM19 12.5714V13.3214C19.2539 13.3214 19.4905 13.193 19.6289 12.9801C19.7672 12.7672 19.7885 12.4988 19.6854 12.2668L19 12.5714ZM16.4286 6.78571L15.7432 6.48111C15.657 6.67503 15.657 6.89639 15.7432 7.09032L16.4286 6.78571ZM19 0.25H1V1.75H19V0.25ZM0.25 1V12.5714H1.75V1H0.25ZM1 13.3214H19V11.8214H1V13.3214ZM19.6854 12.2668L17.1139 6.48111L15.7432 7.09032L18.3146 12.876L19.6854 12.2668ZM17.1139 7.09032L19.6854 1.3046L18.3146 0.695396L15.7432 6.48111L17.1139 7.09032ZM1.75 19.6429V12.5714H0.25V19.6429H1.75Z" fill="#0E1B2C"/>
</svg>