<svg width="105" height="65" viewBox="0 0 105 65" fill="none" xmlns="http://www.w3.org/2000/svg">
<path d="M52.5 12C23.5051 12 0 35.5051 0 64.5H105C105 35.5051 81.4949 12 52.5 12Z" fill="#B8AAEE"/>
<path d="M57.8871 24.9837H56.8871V26.9837H57.8871V24.9837ZM69.6613 26.9837H70.6613V24.9837H69.6613V26.9837ZM57.8871 35.7143H56.8871V37.7143H57.8871V35.7143ZM69.6613 37.7143H70.6613V35.7143H69.6613V37.7143ZM57.8871 14.2763H56.8871V16.2763H57.8871V14.2763ZM69.6613 16.2763H70.6613V14.2763H69.6613V16.2763ZM80.5484 11.7143H81.5484V11.2954L81.2498 11.0015L80.5484 11.7143ZM69.6613 1L70.3627 0.287259L70.0708 0H69.6613V1ZM57.8871 26.9837H69.6613V24.9837H57.8871V26.9837ZM57.8871 37.7143H69.6613V35.7143H57.8871V37.7143ZM57.8871 16.2763H69.6613V14.2763H57.8871V16.2763ZM76.9194 50H40.629V52H76.9194V50ZM79.5484 11.7143V47.4286H81.5484V11.7143H79.5484ZM40.629 2H69.6613V0H40.629V2ZM68.9599 1.71274L79.847 12.427L81.2498 11.0015L70.3627 0.287259L68.9599 1.71274ZM40.629 50C39.1619 50 38 48.8337 38 47.4286H36C36 49.9683 38.0876 52 40.629 52V50ZM76.9194 52C79.4608 52 81.5484 49.9683 81.5484 47.4286H79.5484C79.5484 48.8337 78.3865 50 76.9194 50V52ZM38 4.57143C38 3.16629 39.1619 2 40.629 2V0C38.0876 0 36 2.03168 36 4.57143H38ZM38 47.4286V38.7143H36V47.4286H38ZM38 12.2857V4.57143H36V12.2857H38Z" fill="#0E1B2C"/>
<path d="M29.75 25.5L35.5357 30.3214L43.25 20.6786M36.5 12L23 19.7143V21.1026C23 29.4132 28.5092 36.7169 36.5 39C44.4908 36.7169 50 29.4132 50 21.1026V19.7143L36.5 12Z" stroke="#0E1B2C" stroke-width="2" stroke-linejoin="round"/>
</svg>
