<svg width="42" height="42" viewBox="0 0 42 42" fill="none" xmlns="http://www.w3.org/2000/svg">
<path d="M21 2.42857H22C22 2.0498 21.786 1.70354 21.4472 1.53414L21 2.42857ZM21 5.28571L21.4472 6.18014C21.786 6.01075 22 5.66449 22 5.28571H21ZM18.1429 6.71429L17.6956 5.81986C17.3768 5.97928 17.1669 6.29637 17.1448 6.65215C17.1226 7.00793 17.2916 7.3486 17.5882 7.54634L18.1429 6.71429ZM22.4286 9.57143L21.8739 10.4035C22.0381 10.513 22.2311 10.5714 22.4286 10.5714V9.57143ZM23.8571 9.57143V10.5714C24.4094 10.5714 24.8571 10.1237 24.8571 9.57143H23.8571ZM23.8571 6.71429V5.71429C23.3049 5.71429 22.8571 6.162 22.8571 6.71429H23.8571ZM28.1429 6.71429H29.1429C29.1429 6.162 28.6951 5.71429 28.1429 5.71429V6.71429ZM28.1429 9.57143H27.1429C27.1429 9.83665 27.2482 10.091 27.4358 10.2785L28.1429 9.57143ZM29.5714 11H30.5714C30.5714 10.7348 30.4661 10.4804 30.2785 10.2929L29.5714 11ZM29.5714 13.8571L30.2785 14.5642C30.4661 14.3767 30.5714 14.1224 30.5714 13.8571H29.5714ZM28.1429 15.2857V16.2857C28.4081 16.2857 28.6624 16.1804 28.85 15.9928L28.1429 15.2857ZM25.2857 15.2857L24.8385 16.1801C24.9774 16.2496 25.1305 16.2857 25.2857 16.2857V15.2857ZM19.5714 12.4286L20.0186 11.5341C19.7371 11.3934 19.4057 11.3934 19.1242 11.5341L19.5714 12.4286ZM16.7143 13.8571V14.8571C16.8695 14.8571 17.0226 14.821 17.1615 14.7516L16.7143 13.8571ZM12.4286 13.8571V12.8571C11.9697 12.8571 11.5697 13.1694 11.4584 13.6146L12.4286 13.8571ZM11 19.5714L10.0299 19.3289C9.94466 19.6697 10.0445 20.0302 10.2929 20.2785L11 19.5714ZM15.2857 23.8571L14.5786 24.5643C14.6546 24.6403 14.7424 24.7035 14.8385 24.7516L15.2857 23.8571ZM18.1429 25.2857H19.1429C19.1429 24.9069 18.9289 24.5607 18.5901 24.3913L18.1429 25.2857ZM18.1429 29.5714H17.1429C17.1429 29.8366 17.2482 30.091 17.4358 30.2785L18.1429 29.5714ZM19.5714 31H20.5714C20.5714 30.7348 20.4661 30.4804 20.2785 30.2929L19.5714 31ZM19.5714 33.8571H18.5714C18.5714 34.0124 18.6076 34.1655 18.677 34.3044L19.5714 33.8571ZM21 36.7143L20.1056 37.1615C20.275 37.5003 20.6212 37.7143 21 37.7143V36.7143ZM23.8571 36.7143V37.7143C24.1915 37.7143 24.5037 37.5472 24.6892 37.269L23.8571 36.7143ZM26.7143 32.4286L27.5463 32.9833C27.5693 32.9488 27.5902 32.9129 27.6087 32.8758L26.7143 32.4286ZM28.1429 29.5714L29.0373 30.0186C29.1067 29.8798 29.1429 29.7267 29.1429 29.5714H28.1429ZM28.1429 26.7143L27.3429 26.1143C27.213 26.2874 27.1429 26.4979 27.1429 26.7143H28.1429ZM32.4286 21L33.2286 21.6C33.4558 21.297 33.4924 20.8916 33.323 20.5528L32.4286 21ZM31 18.1429V17.1429C30.6534 17.1429 30.3316 17.3223 30.1493 17.6171C29.9671 17.9119 29.9506 18.2801 30.1056 18.5901L31 18.1429ZM35.2857 18.1429V19.1429C35.838 19.1429 36.2857 18.6951 36.2857 18.1429H35.2857ZM35.2857 15.2857V14.2857C34.7334 14.2857 34.2857 14.7334 34.2857 15.2857H35.2857ZM21 40C10.5066 40 2 31.4934 2 21H0C0 32.598 9.40202 42 21 42V40ZM40 21C40 31.4934 31.4934 40 21 40V42C32.598 42 42 32.598 42 21H40ZM21 2C31.4934 2 40 10.5066 40 21H42C42 9.40202 32.598 0 21 0V2ZM21 0C9.40202 0 0 9.40202 0 21H2C2 10.5066 10.5066 2 21 2V0ZM17.6956 1.89443L20.5528 3.323L21.4472 1.53414L18.5901 0.105573L17.6956 1.89443ZM20 2.42857V5.28571H22V2.42857H20ZM20.5528 4.39129L17.6956 5.81986L18.5901 7.60871L21.4472 6.18014L20.5528 4.39129ZM17.5882 7.54634L21.8739 10.4035L22.9833 8.73938L18.6976 5.88224L17.5882 7.54634ZM22.4286 10.5714H23.8571V8.57143H22.4286V10.5714ZM24.8571 9.57143V6.71429H22.8571V9.57143H24.8571ZM23.8571 7.71429H28.1429V5.71429H23.8571V7.71429ZM27.1429 6.71429V9.57143H29.1429V6.71429H27.1429ZM27.4358 10.2785L28.8643 11.7071L30.2785 10.2929L28.85 8.86432L27.4358 10.2785ZM28.5714 11V13.8571H30.5714V11H28.5714ZM28.8643 13.15L27.4358 14.5786L28.85 15.9928L30.2785 14.5642L28.8643 13.15ZM28.1429 14.2857H25.2857V16.2857H28.1429V14.2857ZM25.7329 14.3913L20.0186 11.5341L19.1242 13.323L24.8385 16.1801L25.7329 14.3913ZM19.1242 11.5341L16.2671 12.9627L17.1615 14.7516L20.0186 13.323L19.1242 11.5341ZM16.7143 12.8571H12.4286V14.8571H16.7143V12.8571ZM11.4584 13.6146L10.0299 19.3289L11.9701 19.814L13.3987 14.0997L11.4584 13.6146ZM10.2929 20.2785L14.5786 24.5643L15.9928 23.15L11.7071 18.8643L10.2929 20.2785ZM14.8385 24.7516L17.6956 26.1801L18.5901 24.3913L15.7329 22.9627L14.8385 24.7516ZM17.1429 25.2857V29.5714H19.1429V25.2857H17.1429ZM17.4358 30.2785L18.8643 31.7071L20.2785 30.2929L18.85 28.8643L17.4358 30.2785ZM18.5714 31V33.8571H20.5714V31H18.5714ZM18.677 34.3044L20.1056 37.1615L21.8944 36.2671L20.4659 33.4099L18.677 34.3044ZM21 37.7143H23.8571V35.7143H21V37.7143ZM24.6892 37.269L27.5463 32.9833L25.8822 31.8739L23.0251 36.1596L24.6892 37.269ZM27.6087 32.8758L29.0373 30.0186L27.2484 29.1242L25.8199 31.9814L27.6087 32.8758ZM29.1429 29.5714V26.7143H27.1429V29.5714H29.1429ZM28.9429 27.3143L33.2286 21.6L31.6286 20.4L27.3429 26.1143L28.9429 27.3143ZM33.323 20.5528L31.8944 17.6956L30.1056 18.5901L31.5341 21.4472L33.323 20.5528ZM31 19.1429H35.2857V17.1429H31V19.1429ZM36.2857 18.1429V15.2857H34.2857V18.1429H36.2857ZM35.2857 16.2857H41V14.2857H35.2857V16.2857Z" fill="#226CF5"/>
</svg>
