<svg width="43" height="42" viewBox="0 0 43 42" fill="none" xmlns="http://www.w3.org/2000/svg">
<path d="M1.5 21C1.5 32.0457 10.4543 41 21.5 41C32.5457 41 41.5 32.0457 41.5 21C41.5 9.95431 32.5457 1 21.5 1C10.4543 1 1.5 9.95431 1.5 21Z" stroke="#FDAF4D" stroke-width="2"/>
<path d="M10.0714 21C10.0714 27.3118 15.1882 32.4286 21.5 32.4286C27.8118 32.4286 32.9286 27.3118 32.9286 21C32.9286 14.6882 27.8118 9.57143 21.5 9.57143C15.1882 9.57143 10.0714 14.6882 10.0714 21Z" stroke="#FDAF4D" stroke-width="2"/>
<path d="M18.6429 21C18.6429 22.578 19.922 23.8571 21.5 23.8571C23.078 23.8571 24.3571 22.578 24.3571 21C24.3571 19.422 23.078 18.1429 21.5 18.1429C19.922 18.1429 18.6429 19.422 18.6429 21Z" stroke="#FDAF4D" stroke-width="2"/>
</svg>
