<svg width="42" height="43" viewBox="0 0 42 43" fill="none" xmlns="http://www.w3.org/2000/svg">
<path d="M26.7143 41.5H25.7143C25.7143 41.8788 25.9283 42.225 26.2671 42.3944C26.6059 42.5638 27.0113 42.5273 27.3143 42.3L26.7143 41.5ZM32.4286 37.2143L33.0286 36.4143C32.673 36.1476 32.1841 36.1476 31.8286 36.4143L32.4286 37.2143ZM38.1429 41.5L37.5429 42.3C37.8459 42.5273 38.2513 42.5638 38.5901 42.3944C38.9289 42.225 39.1429 41.8788 39.1429 41.5H38.1429ZM32.4286 31.9286C28.247 31.9286 24.8571 28.5387 24.8571 24.3571H22.8571C22.8571 29.6433 27.1424 33.9286 32.4286 33.9286V31.9286ZM40 24.3571C40 28.5387 36.6102 31.9286 32.4286 31.9286V33.9286C37.7147 33.9286 42 29.6433 42 24.3571H40ZM32.4286 16.7857C36.6102 16.7857 40 20.1756 40 24.3571H42C42 19.071 37.7147 14.7857 32.4286 14.7857V16.7857ZM32.4286 14.7857C27.1424 14.7857 22.8571 19.071 22.8571 24.3571H24.8571C24.8571 20.1756 28.247 16.7857 32.4286 16.7857V14.7857ZM25.7143 30.0714V41.5H27.7143V30.0714H25.7143ZM27.3143 42.3L33.0286 38.0143L31.8286 36.4143L26.1143 40.7L27.3143 42.3ZM31.8286 38.0143L37.5429 42.3L38.7429 40.7L33.0286 36.4143L31.8286 38.0143ZM39.1429 41.5V30.0714H37.1429V41.5H39.1429ZM42 14.3571V4.35714H40V14.3571H42ZM38.1429 0.5H3.85714V2.5H38.1429V0.5ZM0 4.35714V38.6429H2V4.35714H0ZM3.85714 42.5H22.4286V40.5H3.85714V42.5ZM0 38.6429C0 40.7731 1.7269 42.5 3.85714 42.5V40.5C2.83147 40.5 2 39.6685 2 38.6429H0ZM3.85714 0.5C1.7269 0.5 0 2.2269 0 4.35714H2C2 3.33147 2.83147 2.5 3.85714 2.5V0.5ZM42 4.35714C42 2.2269 40.2731 0.5 38.1429 0.5V2.5C39.1685 2.5 40 3.33147 40 4.35714H42ZM8.14286 13.9286H22.4286V11.9286H8.14286V13.9286ZM8.14286 22.5H16.7143V20.5H8.14286V22.5Z" fill="#FDAF4D"/>
</svg>
